<svg width="31" height="30" viewBox="0 0 31 30" fill="none" xmlns="http://www.w3.org/2000/svg">
<path d="M15.2015 0C23.4665 0 30.2015 6.72 30.2015 15C30.2015 23.265 23.4665 30 15.2015 30C6.92154 30 0.201538 23.265 0.201538 15C0.201538 6.72 6.92154 0 15.2015 0ZM10.7915 12.045C10.3565 11.595 9.63654 11.595 9.20154 12.03C8.75154 12.48 8.75154 13.185 9.20154 13.62L14.4065 18.855C14.6165 19.065 14.9015 19.185 15.2015 19.185C15.5015 19.185 15.7865 19.065 15.9965 18.855L21.2015 13.62C21.4265 13.41 21.5315 13.125 21.5315 12.84C21.5315 12.54 21.4265 12.255 21.2015 12.03C20.7515 11.595 20.0465 11.595 19.6115 12.045L15.2015 16.47L10.7915 12.045Z" fill="#86BC25"/>
</svg>
