<?xml version="1.0" encoding="UTF-8" standalone="no"?><!DOCTYPE svg PUBLIC "-//W3C//DTD SVG 1.1//EN" "http://www.w3.org/Graphics/SVG/1.1/DTD/svg11.dtd"><svg width="100%" height="100%" viewBox="0 0 369 559" version="1.1" xmlns="http://www.w3.org/2000/svg" xmlns:xlink="http://www.w3.org/1999/xlink" xml:space="preserve" xmlns:serif="http://www.serif.com/" style="fill-rule:evenodd;clip-rule:evenodd;stroke-linejoin:round;stroke-miterlimit:2;"><path d="M172.764,558.578l-172.764,-0l0,-251.868l29.395,0l-0,224.866l143.369,-0l0,27.002Zm63.963,-251.868l132.083,0l0,26.49l-71.647,-0l-0,225.378l-29.395,-0l0,-225.378l-58.85,-0c6.002,-2.845 11.582,-6.807 16.74,-11.888c4.587,-4.519 8.277,-9.386 11.069,-14.602Zm-38.526,213.415l-28.027,0l0,-174.803l28.027,0l0,174.803Zm11.797,-293.548l110.597,-198.372l-124.585,-0l-0,-27.686l172.607,0l-123.795,222.964l123.988,0l0,27.686l-133.029,-0c-2.662,-4.619 -6.037,-8.972 -10.123,-13.059c-4.847,-4.846 -10.067,-8.691 -15.66,-11.533Zm-37.797,-46.839c-0,23.792 -8.601,41.528 -25.802,53.208c-17.201,11.679 -43.321,17.519 -78.36,17.519l-68.039,0l0,-250.465l59.439,0c27.394,0 48.8,5.732 64.217,17.195c15.417,11.464 23.125,27.199 23.125,47.206c0,13.951 -3.726,25.468 -11.18,34.552c-7.454,9.084 -17.934,14.87 -31.44,17.358c20.387,2.163 36.823,9.138 49.31,20.926c12.486,11.788 18.73,25.955 18.73,42.501Zm-32.873,0c-0,-15.357 -6.562,-27.172 -19.686,-35.445c-13.124,-8.273 -32.045,-12.409 -56.763,-12.409l-30.006,-0l-0,92.951l36.313,-0c24.846,-0 42.748,-3.65 53.705,-10.95c10.958,-7.3 16.437,-18.682 16.437,-34.147Zm-25.419,-113.066c-0,-14.167 -4.524,-24.549 -13.57,-31.146c-9.047,-6.597 -23.19,-9.895 -42.429,-9.895l-25.037,-0l-0,81.92l19.877,-0c20.386,-0 35.676,-3.38 45.869,-10.139c10.193,-6.759 15.29,-17.006 15.29,-30.74Z" style="fill:#fff;fill-rule:nonzero;"/><path d="M213.419,279.716c0,8.049 -2.93,14.961 -8.792,20.735c-5.862,5.774 -12.817,8.661 -20.866,8.661c-8.049,0 -14.961,-2.887 -20.735,-8.661c-5.775,-5.774 -8.662,-12.686 -8.662,-20.735c0,-8.049 2.887,-15.004 8.662,-20.866c5.774,-5.862 12.686,-8.793 20.735,-8.793c8.049,0 15.004,2.931 20.866,8.793c5.862,5.862 8.792,12.817 8.792,20.866Z" style="fill:#acc925;"/></svg>