<svg width="14" height="14" viewBox="0 0 14 14" fill="none" xmlns="http://www.w3.org/2000/svg">
<path d="M5.95246 0.913961L6.64613 0.220288C6.93985 -0.0734293 7.4148 -0.0734293 7.70539 0.220288L13.7797 6.29149C14.0734 6.5852 14.0734 7.06015 13.7797 7.35074L7.70539 13.4251C7.41167 13.7188 6.93673 13.7188 6.64613 13.4251L5.95246 12.7314C5.65562 12.4346 5.66187 11.9502 5.96496 11.6596L9.73016 8.07254H0.749916C0.334338 8.07254 0 7.7382 0 7.32262V6.32273C0 5.90715 0.334338 5.57282 0.749916 5.57282H9.73016L5.96496 1.98572C5.65874 1.69512 5.65249 1.2108 5.95246 0.913961Z" fill="#86BC25"/>
</svg>
