<svg width="24" height="18" viewBox="0 0 24 18" fill="none" xmlns="http://www.w3.org/2000/svg">
<path fill-rule="evenodd" clip-rule="evenodd" d="M0 1.9407V16.2468C0 17.0251 0.546094 17.6559 1.29844 17.6559H22.7016C23.4531 17.6559 24 17.0178 24 16.2468V1.9407C24 1.08661 23.5109 0.423218 22.7016 0.423218H1.29844C0.457813 0.423218 0 1.10291 0 1.9407ZM1.97344 3.1868C1.97344 2.84207 2.17344 2.64484 2.49297 2.64484C2.69062 2.64484 10.468 7.78571 10.9391 8.08725L12.1563 8.87696C12.5422 8.60721 12.9297 8.37657 13.3297 8.09703C14.1461 7.55263 21.4102 2.64484 21.6102 2.64484C21.9305 2.64484 22.1297 2.84207 22.1297 3.1868C22.1297 3.55191 21.4555 3.91457 21.0164 4.19411C18.2578 5.94794 15.5 7.85987 12.7687 9.6789C12.6094 9.79137 12.3008 10.0318 12.0695 9.99511C11.8117 9.95355 3.89766 4.64968 2.45781 3.76625C2.24141 3.63341 1.97344 3.51198 1.97344 3.1868Z" fill="white"/>
</svg>
