<svg width="30" height="24" viewBox="0 0 30 24" fill="none" xmlns="http://www.w3.org/2000/svg">
<path d="M28.9286 18.8096H1.07143C0.787268 18.8096 0.514746 18.9334 0.313814 19.1539C0.112882 19.3744 0 19.6734 0 19.9852V22.3364C0 22.6481 0.112882 22.9472 0.313814 23.1676C0.514746 23.3881 0.787268 23.512 1.07143 23.512H28.9286C29.2127 23.512 29.4853 23.3881 29.6862 23.1676C29.8871 22.9472 30 22.6481 30 22.3364V19.9852C30 19.6734 29.8871 19.3744 29.6862 19.1539C29.4853 18.9334 29.2127 18.8096 28.9286 18.8096ZM28.9286 9.40478H1.07143C0.787268 9.40478 0.514746 9.52864 0.313814 9.74911C0.112882 9.96957 0 10.2686 0 10.5804V12.9316C0 13.2434 0.112882 13.5424 0.313814 13.7628C0.514746 13.9833 0.787268 14.1072 1.07143 14.1072H28.9286C29.2127 14.1072 29.4853 13.9833 29.6862 13.7628C29.8871 13.5424 30 13.2434 30 12.9316V10.5804C30 10.2686 29.8871 9.96957 29.6862 9.74911C29.4853 9.52864 29.2127 9.40478 28.9286 9.40478ZM28.9286 0H1.07143C0.787268 0 0.514746 0.123857 0.313814 0.344325C0.112882 0.564792 0 0.86381 0 1.1756V3.52679C0 3.83858 0.112882 4.1376 0.313814 4.35807C0.514746 4.57853 0.787268 4.70239 1.07143 4.70239H28.9286C29.2127 4.70239 29.4853 4.57853 29.6862 4.35807C29.8871 4.1376 30 3.83858 30 3.52679V1.1756C30 0.86381 29.8871 0.564792 29.6862 0.344325C29.4853 0.123857 29.2127 0 28.9286 0Z" fill="white"/>
</svg>
