<svg width="114" height="184" viewBox="0 0 114 184" fill="none" xmlns="http://www.w3.org/2000/svg">
<path d="M28.405 132.323H32.2878V137.878C31.6836 138.071 31.0691 138.217 30.4441 138.316C29.8191 138.415 29.0951 138.464 28.2722 138.464C26.543 138.464 25.1967 137.951 24.2331 136.925C23.2696 135.894 22.7878 134.451 22.7878 132.597C22.7878 131.409 23.0248 130.37 23.4987 129.48C23.9779 128.584 24.6654 127.901 25.5612 127.433C26.4571 126.959 27.5066 126.722 28.7097 126.722C29.9284 126.722 31.0638 126.946 32.1159 127.394L31.6003 128.566C30.5691 128.128 29.5769 127.909 28.6237 127.909C27.2331 127.909 26.1472 128.323 25.3659 129.151C24.5847 129.98 24.1941 131.128 24.1941 132.597C24.1941 134.138 24.5691 135.308 25.3191 136.105C26.0743 136.901 27.181 137.3 28.6394 137.3C29.431 137.3 30.2045 137.209 30.9597 137.026V133.511H28.405V132.323ZM38.4597 138.464C37.1941 138.464 36.1941 138.079 35.4597 137.308C34.7305 136.537 34.3659 135.467 34.3659 134.097C34.3659 132.717 34.7045 131.62 35.3816 130.808C36.0638 129.995 36.9779 129.589 38.1237 129.589C39.1967 129.589 40.0456 129.943 40.6706 130.651C41.2956 131.355 41.6081 132.284 41.6081 133.441V134.261H35.7097C35.7357 135.266 35.9883 136.029 36.4675 136.55C36.9519 137.071 37.6316 137.331 38.5066 137.331C39.4284 137.331 40.3399 137.138 41.2409 136.753V137.909C40.7826 138.107 40.3477 138.248 39.9362 138.331C39.53 138.42 39.0378 138.464 38.4597 138.464ZM38.1081 130.675C37.4206 130.675 36.8711 130.899 36.4597 131.347C36.0534 131.795 35.8138 132.415 35.7409 133.206H40.2175C40.2175 132.388 40.0352 131.763 39.6706 131.331C39.306 130.894 38.7852 130.675 38.1081 130.675ZM49.6862 138.308V132.769C49.6862 132.071 49.5274 131.55 49.2097 131.206C48.892 130.862 48.3946 130.691 47.7175 130.691C46.8217 130.691 46.1654 130.933 45.7487 131.417C45.3321 131.901 45.1237 132.701 45.1237 133.816V138.308H43.8269V129.745H44.8816L45.0925 130.917H45.155C45.4206 130.495 45.793 130.17 46.2722 129.941C46.7513 129.706 47.2852 129.589 47.8737 129.589C48.905 129.589 49.681 129.839 50.2019 130.339C50.7227 130.834 50.9831 131.628 50.9831 132.722V138.308H49.6862ZM57.2722 138.464C56.0066 138.464 55.0066 138.079 54.2722 137.308C53.543 136.537 53.1784 135.467 53.1784 134.097C53.1784 132.717 53.517 131.62 54.1941 130.808C54.8763 129.995 55.7904 129.589 56.9362 129.589C58.0092 129.589 58.8581 129.943 59.4831 130.651C60.1081 131.355 60.4206 132.284 60.4206 133.441V134.261H54.5222C54.5482 135.266 54.8008 136.029 55.28 136.55C55.7644 137.071 56.4441 137.331 57.3191 137.331C58.2409 137.331 59.1524 137.138 60.0534 136.753V137.909C59.5951 138.107 59.1602 138.248 58.7487 138.331C58.3425 138.42 57.8503 138.464 57.2722 138.464ZM56.9206 130.675C56.2331 130.675 55.6836 130.899 55.2722 131.347C54.8659 131.795 54.6263 132.415 54.5534 133.206H59.03C59.03 132.388 58.8477 131.763 58.4831 131.331C58.1185 130.894 57.5977 130.675 56.9206 130.675ZM66.5456 129.589C66.9258 129.589 67.267 129.62 67.5691 129.683L67.3894 130.886C67.0352 130.808 66.7227 130.769 66.4519 130.769C65.7592 130.769 65.1654 131.05 64.6706 131.612C64.181 132.175 63.9362 132.875 63.9362 133.714V138.308H62.6394V129.745H63.7097L63.8581 131.331H63.9206C64.2383 130.774 64.6211 130.344 65.0691 130.042C65.517 129.74 66.0092 129.589 66.5456 129.589ZM74.4362 138.308L74.1784 137.089H74.1159C73.6888 137.625 73.2618 137.99 72.8347 138.183C72.4128 138.37 71.8842 138.464 71.2487 138.464C70.3998 138.464 69.7331 138.245 69.2487 137.808C68.7696 137.37 68.53 136.748 68.53 135.941C68.53 134.211 69.9128 133.305 72.6784 133.222L74.1316 133.175V132.644C74.1316 131.972 73.9857 131.477 73.6941 131.159C73.4076 130.836 72.9467 130.675 72.3112 130.675C71.5977 130.675 70.7904 130.894 69.8894 131.331L69.4909 130.339C69.9128 130.11 70.3737 129.93 70.8737 129.8C71.3789 129.67 71.8842 129.605 72.3894 129.605C73.4102 129.605 74.1654 129.831 74.655 130.284C75.1498 130.737 75.3972 131.464 75.3972 132.464V138.308H74.4362ZM71.5066 137.394C72.3138 137.394 72.9467 137.172 73.405 136.73C73.8685 136.287 74.1003 135.667 74.1003 134.87V134.097L72.8034 134.151C71.7722 134.188 71.0274 134.349 70.5691 134.636C70.1159 134.917 69.8894 135.357 69.8894 135.956C69.8894 136.425 70.03 136.782 70.3112 137.026C70.5977 137.271 70.9961 137.394 71.5066 137.394ZM80.8425 137.394C81.0717 137.394 81.293 137.378 81.5066 137.347C81.7201 137.31 81.8894 137.274 82.0144 137.237V138.23C81.8737 138.297 81.6654 138.352 81.3894 138.394C81.1185 138.441 80.8737 138.464 80.655 138.464C78.9987 138.464 78.1706 137.592 78.1706 135.847V130.753H76.9441V130.128L78.1706 129.589L78.7175 127.761H79.4675V129.745H81.9519V130.753H79.4675V135.792C79.4675 136.308 79.5899 136.704 79.8347 136.98C80.0795 137.256 80.4154 137.394 80.8425 137.394ZM87.3503 138.464C86.0847 138.464 85.0847 138.079 84.3503 137.308C83.6211 136.537 83.2566 135.467 83.2566 134.097C83.2566 132.717 83.5951 131.62 84.2722 130.808C84.9545 129.995 85.8685 129.589 87.0144 129.589C88.0873 129.589 88.9362 129.943 89.5612 130.651C90.1862 131.355 90.4987 132.284 90.4987 133.441V134.261H84.6003C84.6263 135.266 84.8789 136.029 85.3581 136.55C85.8425 137.071 86.5222 137.331 87.3972 137.331C88.3191 137.331 89.2305 137.138 90.1316 136.753V137.909C89.6732 138.107 89.2383 138.248 88.8269 138.331C88.4206 138.42 87.9284 138.464 87.3503 138.464ZM86.9987 130.675C86.3112 130.675 85.7618 130.899 85.3503 131.347C84.9441 131.795 84.7045 132.415 84.6316 133.206H89.1081C89.1081 132.388 88.9258 131.763 88.5612 131.331C88.1967 130.894 87.6758 130.675 86.9987 130.675ZM36.3191 160.308V148.886H37.6472V159.105H42.6862V160.308H36.3191ZM48.0534 160.464C46.7878 160.464 45.7878 160.079 45.0534 159.308C44.3243 158.537 43.9597 157.467 43.9597 156.097C43.9597 154.717 44.2982 153.62 44.9753 152.808C45.6576 151.995 46.5717 151.589 47.7175 151.589C48.7904 151.589 49.6394 151.943 50.2644 152.651C50.8894 153.355 51.2019 154.284 51.2019 155.441V156.261H45.3034C45.3295 157.266 45.5821 158.029 46.0612 158.55C46.5456 159.071 47.2253 159.331 48.1003 159.331C49.0222 159.331 49.9336 159.138 50.8347 158.753V159.909C50.3763 160.107 49.9414 160.248 49.53 160.331C49.1237 160.42 48.6316 160.464 48.0534 160.464ZM47.7019 152.675C47.0144 152.675 46.4649 152.899 46.0534 153.347C45.6472 153.795 45.4076 154.415 45.3347 155.206H49.8112C49.8112 154.388 49.6289 153.763 49.2644 153.331C48.8998 152.894 48.3789 152.675 47.7019 152.675ZM58.6862 160.308L58.4284 159.089H58.3659C57.9388 159.625 57.5118 159.99 57.0847 160.183C56.6628 160.37 56.1342 160.464 55.4987 160.464C54.6498 160.464 53.9831 160.245 53.4987 159.808C53.0196 159.37 52.78 158.748 52.78 157.941C52.78 156.211 54.1628 155.305 56.9284 155.222L58.3816 155.175V154.644C58.3816 153.972 58.2357 153.477 57.9441 153.159C57.6576 152.836 57.1967 152.675 56.5612 152.675C55.8477 152.675 55.0404 152.894 54.1394 153.331L53.7409 152.339C54.1628 152.11 54.6237 151.93 55.1237 151.8C55.6289 151.67 56.1342 151.605 56.6394 151.605C57.6602 151.605 58.4154 151.831 58.905 152.284C59.3998 152.737 59.6472 153.464 59.6472 154.464V160.308H58.6862ZM55.7566 159.394C56.5638 159.394 57.1967 159.172 57.655 158.73C58.1185 158.287 58.3503 157.667 58.3503 156.87V156.097L57.0534 156.151C56.0222 156.188 55.2774 156.349 54.8191 156.636C54.3659 156.917 54.1394 157.357 54.1394 157.956C54.1394 158.425 54.28 158.782 54.5612 159.026C54.8477 159.271 55.2461 159.394 55.7566 159.394ZM68.155 159.159H68.0847C67.4857 160.029 66.5899 160.464 65.3972 160.464C64.2774 160.464 63.405 160.081 62.78 159.316C62.1602 158.55 61.8503 157.461 61.8503 156.05C61.8503 154.638 62.1628 153.542 62.7878 152.761C63.4128 151.98 64.2826 151.589 65.3972 151.589C66.5586 151.589 67.4493 152.011 68.0691 152.855H68.1706L68.1159 152.237L68.0847 151.636V148.151H69.3816V160.308H68.3269L68.155 159.159ZM65.5612 159.378C66.4467 159.378 67.0873 159.138 67.4831 158.659C67.8842 158.175 68.0847 157.396 68.0847 156.323V156.05C68.0847 154.836 67.8816 153.972 67.4753 153.456C67.0743 152.935 66.431 152.675 65.5456 152.675C64.7852 152.675 64.2019 152.972 63.7956 153.566C63.3946 154.154 63.1941 154.987 63.1941 156.066C63.1941 157.159 63.3946 157.985 63.7956 158.542C64.1967 159.099 64.7852 159.378 65.5612 159.378ZM77.6628 157.972C77.6628 158.769 77.3659 159.383 76.7722 159.816C76.1784 160.248 75.3451 160.464 74.2722 160.464C73.1368 160.464 72.2513 160.284 71.6159 159.925V158.722C72.0274 158.93 72.4675 159.094 72.9362 159.214C73.4102 159.334 73.8659 159.394 74.3034 159.394C74.9805 159.394 75.5013 159.287 75.8659 159.073C76.2305 158.855 76.4128 158.524 76.4128 158.081C76.4128 157.748 76.267 157.464 75.9753 157.23C75.6888 156.99 75.1263 156.709 74.2878 156.386C73.4909 156.089 72.9232 155.831 72.5847 155.612C72.2513 155.388 72.0013 155.136 71.8347 154.855C71.6732 154.573 71.5925 154.237 71.5925 153.847C71.5925 153.149 71.8763 152.599 72.4441 152.198C73.0118 151.792 73.7904 151.589 74.78 151.589C75.7019 151.589 76.6029 151.776 77.4831 152.151L77.0222 153.206C76.1628 152.852 75.3842 152.675 74.6862 152.675C74.0717 152.675 73.6081 152.771 73.2956 152.964C72.9831 153.157 72.8269 153.422 72.8269 153.761C72.8269 153.99 72.8842 154.185 72.9987 154.347C73.1185 154.508 73.3086 154.662 73.5691 154.808C73.8295 154.954 74.3295 155.165 75.0691 155.441C76.0847 155.81 76.7696 156.183 77.1237 156.558C77.4831 156.933 77.6628 157.404 77.6628 157.972Z" fill="white"/>
<path d="M2 54.4935L2 157.49C2 170.791 11.8578 181.59 23.9999 181.59H89.9999C102.142 181.59 112 170.791 112 157.49L112 26.1004C112 12.7989 102.142 1.99999 89.9999 1.99999H23.9999C11.8578 1.99999 2 12.7989 2 26.1004V35.5906" stroke="#85BB25" stroke-width="3" stroke-miterlimit="1.5" stroke-linecap="round" stroke-linejoin="round"/>
<g clip-path="url(#clip0)">
<path d="M76.3912 78.4061H79.1533C79.5855 80.5447 81.4793 82.16 83.7434 82.16C86.3255 82.16 88.4263 80.0593 88.4263 77.477C88.4263 74.8948 86.3255 72.7941 83.7433 72.7941C81.4792 72.7941 79.5854 74.4094 79.1532 76.548H76.3911C76.1703 71.8157 74.2725 67.5144 71.2789 64.227L76.2541 59.2519C77.2334 59.965 78.4376 60.3873 79.7391 60.3873C83.0113 60.3873 85.6733 57.7252 85.6733 54.453C85.6733 51.1808 83.0113 48.5188 79.7391 48.5188C76.4669 48.5188 73.8049 51.1809 73.8049 54.453C73.8049 55.7545 74.2271 56.9587 74.9403 57.938L69.9651 62.9131C66.6777 59.9196 62.3764 58.0217 57.6441 57.801V55.0389C59.7828 54.6067 61.398 52.713 61.398 50.4488C61.398 47.8666 59.2973 45.7659 56.7151 45.7659C54.1328 45.7659 52.0321 47.8666 52.0321 50.4488C52.0321 52.713 53.6474 54.6067 55.786 55.0389V57.8009C51.0538 58.0217 46.7524 59.9195 43.465 62.9129L38.4902 57.9383C39.2035 56.9588 39.6257 55.7545 39.6257 54.453C39.6257 52.477 38.647 50.6369 37.0077 49.5307C36.5821 49.2438 36.0047 49.3558 35.7179 49.7812C35.4309 50.2065 35.543 50.7839 35.9683 51.0709C37.095 51.8311 37.7675 53.0955 37.7675 54.453C37.7675 56.7008 35.9387 58.5296 33.6909 58.5296C31.4431 58.5296 29.6144 56.7008 29.6144 54.453C29.6144 52.6378 30.8327 51.0243 32.5771 50.5295C33.0707 50.3894 33.3573 49.8757 33.2172 49.3821C33.0771 48.8884 32.5632 48.6022 32.0699 48.7419C29.5301 49.4626 27.7563 51.8111 27.7563 54.453C27.7563 57.7254 30.4186 60.3877 33.691 60.3877C34.9927 60.3877 36.197 59.9654 37.1763 59.2522L42.1511 64.2269C39.1575 67.5143 37.2598 71.8156 37.0389 76.5479H34.2769C33.8448 74.4092 31.951 72.7939 29.6869 72.7939C27.1046 72.7941 25.0039 74.8948 25.0039 77.477C25.0039 80.0593 27.1046 82.16 29.6869 82.16C31.951 82.16 33.8448 80.5447 34.2769 78.4061H37.039C37.2599 83.1384 39.1576 87.4397 42.1512 90.7271L37.176 95.7022C36.1967 94.989 34.9926 94.5668 33.691 94.5668C30.4188 94.5668 27.7568 97.2289 27.7568 100.501C27.7568 103.773 30.4188 106.435 33.691 106.435C36.9632 106.435 39.6252 103.773 39.6252 100.501C39.6252 99.1996 39.2031 97.9954 38.4898 97.0161L43.465 92.041C46.7524 95.0345 51.0538 96.9323 55.786 97.1531V99.9151C53.6474 100.347 52.0321 102.241 52.0321 104.505C52.0321 107.087 54.1328 109.188 56.7151 109.188C59.2973 109.188 61.398 107.087 61.398 104.505C61.398 102.241 59.7828 100.347 57.6441 99.9152V97.1532C62.3764 96.9323 66.6777 95.0346 69.9651 92.0411L74.94 97.0158C74.2267 97.9953 73.8044 99.1996 73.8044 100.501C73.8044 103.773 76.4667 106.436 79.7391 106.436C83.0116 106.436 85.6738 103.774 85.6738 100.501C85.6738 99.8587 85.5715 99.2261 85.3697 98.6205C85.2073 98.1338 84.681 97.8707 84.1947 98.0328C83.7078 98.1951 83.4447 98.7212 83.607 99.208C83.7455 99.6236 83.8159 100.059 83.8159 100.501C83.8159 102.749 81.987 104.578 79.7393 104.578C77.4915 104.578 75.6626 102.749 75.6626 100.501C75.6626 98.2531 77.4915 96.4243 79.7393 96.4243C80.2537 96.4243 80.7554 96.519 81.2303 96.7057C81.7073 96.8933 82.247 96.6583 82.4348 96.1808C82.6225 95.7033 82.3875 95.1641 81.91 94.9763C81.2177 94.7043 80.4874 94.5663 79.7394 94.5663C78.4377 94.5663 77.2334 94.9885 76.2541 95.7018L71.2793 90.7271C74.2725 87.4397 76.1704 83.1384 76.3912 78.4061ZM83.7433 74.6521C85.301 74.6521 86.5682 75.9194 86.5682 77.477C86.5682 79.0347 85.301 80.3019 83.7433 80.3019C82.1856 80.3019 80.9184 79.0347 80.9184 77.477C80.9184 75.9194 82.1857 74.6521 83.7433 74.6521ZM79.7391 50.3769C81.9868 50.3769 83.8152 52.2055 83.8152 54.453C83.8152 56.7006 81.9867 58.5292 79.7391 58.5292C77.4916 58.5292 75.663 56.7006 75.663 54.453C75.663 52.2053 77.4916 50.3769 79.7391 50.3769ZM53.8902 50.4488C53.8902 48.8912 55.1575 47.6239 56.7151 47.6239C58.2726 47.6239 59.54 48.8912 59.54 50.4488C59.54 52.0065 58.2726 53.2737 56.7151 53.2737C55.1575 53.2737 53.8902 52.0064 53.8902 50.4488ZM29.6869 80.3019C28.1292 80.3019 26.862 79.0347 26.862 77.477C26.862 75.9194 28.1292 74.6521 29.6869 74.6521C31.2446 74.6521 32.5117 75.9194 32.5117 77.477C32.5117 79.0347 31.2444 80.3019 29.6869 80.3019ZM56.7151 59.6365C66.5524 59.6365 74.5556 67.6398 74.5556 77.477C74.5556 87.3143 66.5524 95.3176 56.7151 95.3176C46.8778 95.3176 38.8746 87.3144 38.8746 77.477C38.8746 67.6396 46.8778 59.6365 56.7151 59.6365ZM33.691 104.577C31.4434 104.577 29.6149 102.749 29.6149 100.501C29.6149 98.2534 31.4435 96.4248 33.691 96.4248C35.9386 96.4248 37.7672 98.2534 37.7672 100.501C37.7672 102.749 35.9386 104.577 33.691 104.577ZM59.54 104.505C59.54 106.063 58.2726 107.33 56.7151 107.33C55.1575 107.33 53.8902 106.063 53.8902 104.505C53.8902 102.948 55.1575 101.68 56.7151 101.68C58.2726 101.68 59.54 102.948 59.54 104.505Z" fill="#86BC25"/>
<path d="M46.2047 88.9166H51.4513C51.4541 88.9166 51.4568 88.917 51.4597 88.917C51.4625 88.917 51.4653 88.9166 51.4681 88.9166H54.5474C55.0606 88.9166 55.4765 88.5007 55.4765 87.9876C55.4765 87.4745 55.0606 87.0586 54.5474 87.0586H52.3887V85.4854C52.3887 84.9723 51.9729 84.5564 51.4597 84.5564C50.9465 84.5564 50.5306 84.9723 50.5306 85.4854V87.0586H47.1337V82.4827C47.1337 80.235 48.9619 78.4061 51.209 78.4061H62.2212C64.4683 78.4061 66.2964 80.235 66.2964 82.4827V87.0586H62.8995V85.4854C62.8995 84.9723 62.4837 84.5564 61.9705 84.5564C61.4573 84.5564 61.0414 84.9723 61.0414 85.4854V87.0586H58.883C58.3698 87.0586 57.9539 87.4745 57.9539 87.9876C57.9539 88.5007 58.3698 88.9166 58.883 88.9166H61.9623C61.9651 88.9166 61.9679 88.917 61.9707 88.917C61.9736 88.917 61.9763 88.9166 61.9791 88.9166H67.2257C67.7389 88.9166 68.1548 88.5007 68.1548 87.9876V82.4827C68.1548 79.2103 65.4931 76.5481 62.2214 76.5481H61.5317C62.9857 75.2323 63.9009 73.3314 63.9009 71.2206C63.9009 67.2584 60.6775 64.035 56.7153 64.035C52.7532 64.035 49.5298 67.2584 49.5298 71.2206C49.5298 73.3314 50.4449 75.2323 51.8989 76.5481H51.2092C47.9375 76.5481 45.2759 79.2103 45.2759 82.4827V87.9876C45.2756 88.5007 45.6916 88.9166 46.2047 88.9166ZM51.3877 71.2206C51.3877 68.2831 53.7776 65.8931 56.7152 65.8931C59.6528 65.8931 62.0427 68.283 62.0427 71.2206C62.0427 74.1582 59.6528 76.5481 56.7152 76.5481C53.7776 76.5481 51.3877 74.1582 51.3877 71.2206Z" fill="#86BC25"/>
</g>
<defs>
<clipPath id="clip0">
<rect width="63.4223" height="63.4223" fill="white" transform="translate(25.0039 45.7659)"/>
</clipPath>
</defs>
</svg>
