<?xml version="1.0" encoding="utf-8"?>
<!-- Generator: Adobe Illustrator 16.0.0, SVG Export Plug-In . SVG Version: 6.00 Build 0)  -->
<!DOCTYPE svg PUBLIC "-//W3C//DTD SVG 1.1//EN" "http://www.w3.org/Graphics/SVG/1.1/DTD/svg11.dtd">
<svg version="1.1" id="Layer_1" xmlns="http://www.w3.org/2000/svg" xmlns:xlink="http://www.w3.org/1999/xlink" x="0px" y="0px"
	 width="114px" height="184px" viewBox="0 0 114 184" enable-background="new 0 0 114 184" xml:space="preserve">
<path fill="#FFFFFF" d="M36.693,136.428l-3.391-8.859h-0.055c0.064,0.703,0.096,1.537,0.096,2.502v6.357H32.27v-9.994h1.75
	l3.165,8.244h0.055l3.192-8.244h1.736v9.994h-1.162v-6.438c0-0.738,0.032-1.54,0.096-2.406h-0.055l-3.418,8.845H36.693z
	 M49.353,136.428l-0.226-1.066h-0.055c-0.374,0.47-0.747,0.789-1.121,0.957c-0.369,0.164-0.832,0.246-1.388,0.246
	c-0.743,0-1.326-0.19-1.75-0.573c-0.419-0.384-0.629-0.929-0.629-1.634c0-1.514,1.21-2.307,3.63-2.379l1.271-0.041v-0.465
	c0-0.589-0.127-1.021-0.383-1.3c-0.25-0.282-0.654-0.423-1.21-0.423c-0.624,0-1.331,0.191-2.119,0.574l-0.349-0.868
	c0.369-0.201,0.772-0.358,1.21-0.472c0.442-0.114,0.884-0.172,1.326-0.172c0.894,0,1.554,0.198,1.982,0.596
	c0.433,0.396,0.649,1.031,0.649,1.906v5.113H49.353z M46.79,135.629c0.707,0,1.26-0.193,1.661-0.582
	c0.406-0.387,0.608-0.929,0.608-1.626v-0.677l-1.135,0.048c-0.902,0.032-1.554,0.173-1.955,0.423
	c-0.396,0.247-0.595,0.633-0.595,1.156c0,0.41,0.123,0.722,0.369,0.936C45.995,135.521,46.343,135.629,46.79,135.629z
	 M57.666,136.428v-4.846c0-0.611-0.139-1.066-0.417-1.368c-0.278-0.3-0.713-0.45-1.306-0.45c-0.784,0-1.358,0.211-1.723,0.635
	c-0.364,0.425-0.547,1.123-0.547,2.1v3.93h-1.135v-7.492h0.923l0.185,1.026h0.055c0.232-0.37,0.559-0.653,0.978-0.854
	c0.419-0.205,0.887-0.309,1.401-0.309c0.902,0,1.582,0.219,2.038,0.657c0.455,0.433,0.684,1.128,0.684,2.085v4.887H57.666z
	 M65.746,136.428l-0.227-1.066h-0.055c-0.373,0.47-0.746,0.789-1.121,0.957c-0.369,0.164-0.831,0.246-1.387,0.246
	c-0.743,0-1.326-0.19-1.75-0.573c-0.42-0.384-0.629-0.929-0.629-1.634c0-1.514,1.209-2.307,3.629-2.379l1.271-0.041v-0.465
	c0-0.589-0.127-1.021-0.383-1.3c-0.25-0.282-0.653-0.423-1.209-0.423c-0.625,0-1.331,0.191-2.119,0.574l-0.35-0.868
	c0.369-0.201,0.773-0.358,1.211-0.472c0.441-0.114,0.884-0.172,1.326-0.172c0.893,0,1.554,0.198,1.982,0.596
	c0.433,0.396,0.648,1.031,0.648,1.906v5.113H65.746z M63.182,135.629c0.707,0,1.261-0.193,1.662-0.582
	c0.405-0.387,0.607-0.929,0.607-1.626v-0.677l-1.135,0.048c-0.902,0.032-1.553,0.173-1.955,0.423
	c-0.396,0.247-0.594,0.633-0.594,1.156c0,0.41,0.123,0.722,0.369,0.936C62.387,135.521,62.736,135.629,63.182,135.629z
	 M75.063,128.936v0.719l-1.387,0.164c0.127,0.158,0.241,0.369,0.342,0.629c0.1,0.255,0.15,0.544,0.15,0.867
	c0,0.734-0.251,1.319-0.752,1.758c-0.502,0.437-1.189,0.656-2.064,0.656c-0.224,0-0.434-0.019-0.629-0.056
	c-0.483,0.257-0.725,0.577-0.725,0.964c0,0.205,0.084,0.358,0.252,0.459c0.17,0.096,0.459,0.144,0.869,0.144h1.326
	c0.811,0,1.434,0.171,1.865,0.513c0.438,0.341,0.656,0.838,0.656,1.49c0,0.828-0.332,1.46-0.998,1.893
	c-0.664,0.438-1.635,0.657-2.912,0.657c-0.979,0-1.736-0.183-2.27-0.547c-0.527-0.365-0.793-0.88-0.793-1.545
	c0-0.456,0.146-0.851,0.438-1.183c0.293-0.332,0.703-0.559,1.23-0.678c-0.191-0.086-0.353-0.221-0.484-0.402
	c-0.128-0.183-0.191-0.395-0.191-0.637c0-0.273,0.072-0.512,0.219-0.717c0.146-0.205,0.375-0.404,0.689-0.595
	c-0.387-0.16-0.703-0.431-0.949-0.814c-0.242-0.382-0.363-0.819-0.363-1.312c0-0.82,0.246-1.452,0.738-1.895
	c0.492-0.445,1.189-0.67,2.092-0.67c0.393,0,0.746,0.047,1.061,0.137H75.063z M69.088,137.686c0,0.406,0.172,0.713,0.514,0.924
	c0.342,0.209,0.832,0.313,1.469,0.313c0.953,0,1.657-0.144,2.113-0.43c0.46-0.283,0.689-0.668,0.689-1.155
	c0-0.406-0.125-0.689-0.375-0.848c-0.251-0.155-0.723-0.233-1.416-0.233h-1.359c-0.516,0-0.916,0.123-1.203,0.37
	C69.232,136.873,69.088,137.227,69.088,137.686z M69.703,131.336c0,0.523,0.148,0.92,0.445,1.189
	c0.296,0.269,0.709,0.402,1.236,0.402c1.107,0,1.662-0.537,1.662-1.613c0-1.125-0.561-1.688-1.682-1.688
	c-0.533,0-0.943,0.143-1.23,0.43S69.703,130.77,69.703,131.336z M79.766,136.564c-1.107,0-1.982-0.336-2.625-1.012
	c-0.637-0.674-0.957-1.611-0.957-2.809c0-1.208,0.297-2.167,0.889-2.878c0.598-0.712,1.397-1.067,2.4-1.067
	c0.938,0,1.682,0.311,2.229,0.93c0.547,0.615,0.82,1.43,0.82,2.441v0.717h-5.162c0.023,0.881,0.244,1.549,0.664,2.004
	c0.424,0.455,1.018,0.684,1.783,0.684c0.807,0,1.605-0.17,2.393-0.506v1.012c-0.4,0.173-0.781,0.296-1.141,0.369
	C80.703,136.525,80.271,136.564,79.766,136.564z M79.459,129.75c-0.602,0-1.082,0.195-1.443,0.588
	c-0.355,0.391-0.564,0.934-0.629,1.626h3.918c0-0.715-0.16-1.262-0.479-1.64C80.507,129.941,80.051,129.75,79.459,129.75z
	 M47.309,152.77c0,0.879-0.319,1.565-0.957,2.058c-0.638,0.491-1.504,0.737-2.598,0.737c-1.185,0-2.096-0.152-2.734-0.457v-1.121
	c0.41,0.173,0.857,0.31,1.34,0.41c0.483,0.1,0.962,0.15,1.436,0.15c0.775,0,1.358-0.146,1.75-0.438
	c0.392-0.297,0.588-0.707,0.588-1.23c0-0.347-0.07-0.629-0.212-0.848c-0.137-0.223-0.369-0.43-0.697-0.615
	c-0.323-0.188-0.818-0.398-1.483-0.637c-0.93-0.332-1.595-0.727-1.996-1.182c-0.396-0.455-0.595-1.051-0.595-1.785
	c0-0.77,0.29-1.383,0.868-1.838c0.579-0.455,1.345-0.684,2.297-0.684c0.994,0,1.907,0.182,2.741,0.547l-0.362,1.012
	c-0.825-0.347-1.627-0.52-2.406-0.52c-0.615,0-1.096,0.132-1.442,0.396c-0.346,0.265-0.52,0.631-0.52,1.101
	c0,0.346,0.064,0.631,0.191,0.854c0.128,0.219,0.342,0.422,0.643,0.608c0.306,0.183,0.771,0.385,1.395,0.608
	c1.048,0.373,1.769,0.774,2.16,1.203C47.111,151.529,47.309,152.086,47.309,152.77z M53.79,155.428l-0.226-1.066h-0.055
	c-0.374,0.47-0.747,0.789-1.121,0.957c-0.369,0.164-0.832,0.246-1.388,0.246c-0.743,0-1.326-0.19-1.75-0.573
	c-0.419-0.384-0.629-0.929-0.629-1.634c0-1.514,1.21-2.307,3.63-2.379l1.271-0.041v-0.465c0-0.589-0.127-1.021-0.383-1.3
	c-0.25-0.282-0.654-0.423-1.21-0.423c-0.624,0-1.331,0.191-2.119,0.574l-0.349-0.868c0.369-0.201,0.772-0.358,1.21-0.472
	c0.442-0.114,0.884-0.172,1.326-0.172c0.894,0,1.554,0.198,1.982,0.596c0.433,0.396,0.649,1.031,0.649,1.906v5.113H53.79z
	 M51.226,154.629c0.707,0,1.26-0.193,1.661-0.582c0.406-0.387,0.608-0.929,0.608-1.626v-0.677l-1.135,0.048
	c-0.902,0.032-1.554,0.173-1.955,0.423c-0.396,0.247-0.595,0.633-0.595,1.156c0,0.41,0.123,0.722,0.369,0.936
	C50.431,154.521,50.78,154.629,51.226,154.629z M58.109,155.428h-1.134v-10.636h1.134V155.428z M63.682,155.564
	c-1.107,0-1.982-0.336-2.625-1.012c-0.639-0.674-0.957-1.611-0.957-2.809c0-1.208,0.296-2.167,0.889-2.878
	c0.597-0.712,1.396-1.067,2.398-1.067c0.939,0,1.682,0.311,2.229,0.93c0.547,0.615,0.82,1.43,0.82,2.441v0.717h-5.16
	c0.022,0.881,0.244,1.549,0.662,2.004c0.424,0.455,1.02,0.684,1.785,0.684c0.807,0,1.604-0.17,2.393-0.506v1.012
	c-0.401,0.173-0.781,0.296-1.143,0.369C64.617,155.525,64.188,155.564,63.682,155.564z M63.373,148.75
	c-0.602,0-1.082,0.195-1.441,0.588c-0.355,0.391-0.565,0.934-0.629,1.626h3.916c0-0.715-0.158-1.262-0.479-1.64
	C64.422,148.941,63.967,148.75,63.373,148.75z M73.211,153.384c0,0.698-0.26,1.235-0.779,1.614c-0.52,0.378-1.249,0.566-2.188,0.566
	c-0.994,0-1.769-0.156-2.324-0.472v-1.052c0.359,0.182,0.744,0.325,1.154,0.43c0.416,0.105,0.814,0.158,1.197,0.158
	c0.592,0,1.048-0.094,1.367-0.281c0.318-0.19,0.479-0.48,0.479-0.867c0-0.293-0.128-0.541-0.383-0.746
	c-0.251-0.209-0.743-0.455-1.477-0.737c-0.697-0.261-1.194-0.486-1.49-0.677c-0.292-0.196-0.511-0.418-0.656-0.663
	c-0.142-0.246-0.213-0.54-0.213-0.882c0-0.611,0.249-1.092,0.746-1.442c0.496-0.356,1.178-0.534,2.043-0.534
	c0.807,0,1.596,0.165,2.365,0.493l-0.402,0.922c-0.752-0.31-1.434-0.464-2.045-0.464c-0.537,0-0.943,0.084-1.217,0.253
	c-0.273,0.168-0.41,0.401-0.41,0.697c0,0.2,0.051,0.37,0.15,0.513c0.105,0.141,0.271,0.275,0.5,0.403
	c0.228,0.127,0.665,0.312,1.313,0.554c0.889,0.323,1.488,0.648,1.797,0.977C73.053,152.475,73.211,152.889,73.211,153.384z"/>
<path fill="none" stroke="#85BB25" stroke-width="3" stroke-linecap="round" stroke-linejoin="round" stroke-miterlimit="1.5" d="
	M2,54.494V157.49c0,13.301,9.858,24.1,22,24.1h66c12.143,0,22-10.799,22-24.1V26.101C112,12.799,102.143,2,90,2H24
	C11.858,2,2,12.799,2,26.101v9.49"/>
<path fill="none" stroke="#86BC25" stroke-width="2" stroke-linecap="round" stroke-linejoin="round" stroke-miterlimit="1.5" d="
	M73.979,50.467h-9.226v7.114h9.226V50.467z"/>
<path fill="none" stroke="#86BC25" stroke-width="2" stroke-linecap="round" stroke-linejoin="round" stroke-miterlimit="1.5" d="
	M44.964,44.289l-4.672,7.073l9.01-0.034L44.964,44.289z"/>
<path fill="none" stroke="#86BC25" stroke-width="2" stroke-linecap="round" stroke-linejoin="round" stroke-miterlimit="1.5" d="
	M57.223,46.404c2.605,0,4.715-1.881,4.715-4.202S59.828,38,57.223,38c-2.604,0-4.715,1.881-4.715,4.202S54.619,46.404,57.223,46.404
	z"/>
<path fill="none" stroke="#86BC25" stroke-width="2" stroke-linecap="round" stroke-linejoin="round" stroke-miterlimit="1.5" d="
	M30.71,62.128l7.024,8.887c2.134-1.153,4.629-1.829,7.307-1.829c7.804,0,14.13,5.638,14.13,12.593c0,5.57-4.062,10.286-9.686,11.947
	l0.083,7.951l15.336-2.953V84.993l18.338-22.811L30.71,62.128z"/>
<path fill="#86BC25" d="M44.269,83.127c-0.517-0.213-0.998-0.426-1.425-0.661c-0.427-0.213-0.801-0.469-1.104-0.789
	s-0.552-0.682-0.712-1.13c-0.178-0.426-0.267-0.959-0.267-1.578c0-0.959,0.25-1.791,0.748-2.452s1.211-1.109,2.137-1.344v-1.727
	c0.107-0.021,0.267-0.064,0.499-0.107c0.231-0.042,0.463-0.064,0.695-0.064c0.463,0,0.819,0.085,1.086,0.277
	s0.392,0.619,0.392,1.237v0.277c0.73,0.106,1.335,0.341,1.781,0.683c0.445,0.341,0.659,0.81,0.659,1.407
	c0,0.362-0.071,0.683-0.213,0.938c-0.143,0.277-0.321,0.49-0.517,0.682c-0.267-0.192-0.605-0.384-1.051-0.533
	c-0.445-0.128-0.926-0.213-1.442-0.213c-0.534,0-0.926,0.085-1.175,0.256c-0.25,0.192-0.374,0.405-0.374,0.682
	c0,0.213,0.071,0.384,0.231,0.512c0.16,0.149,0.392,0.277,0.695,0.384l0.944,0.362c1.122,0.427,1.977,0.959,2.582,1.621
	c0.587,0.661,0.89,1.578,0.89,2.708c0,0.959-0.249,1.792-0.766,2.453c-0.517,0.682-1.264,1.151-2.244,1.386v1.707
	c-0.107,0.021-0.267,0.064-0.499,0.106s-0.463,0.064-0.695,0.064c-0.463,0-0.819-0.085-1.086-0.277s-0.392-0.618-0.392-1.237v-0.213
	c-0.427-0.064-0.819-0.149-1.157-0.277c-0.356-0.128-0.659-0.299-0.908-0.491c-0.267-0.192-0.463-0.426-0.605-0.704
	c-0.143-0.277-0.214-0.576-0.214-0.917c0-0.405,0.107-0.768,0.303-1.066c0.196-0.277,0.427-0.512,0.659-0.661
	c0.338,0.32,0.73,0.576,1.229,0.811c0.481,0.234,0.997,0.341,1.567,0.341c0.588,0,0.998-0.107,1.229-0.32
	c0.231-0.213,0.356-0.469,0.356-0.746s-0.089-0.512-0.285-0.661c-0.196-0.149-0.463-0.277-0.802-0.427L44.269,83.127z"/>
<path fill="none" stroke="#86BC25" stroke-width="2" stroke-linecap="round" stroke-linejoin="round" stroke-miterlimit="1.5" d="
	M86.222,59.875c0-1.266-1.153-2.293-2.573-2.293H30.574c-1.42,0-2.574,1.028-2.574,2.293c0,1.266,1.153,2.294,2.574,2.294h53.075
	C85.068,62.168,86.222,61.141,86.222,59.875z"/>
<path fill="none" stroke="#86BC25" stroke-width="2" stroke-linecap="round" stroke-linejoin="round" stroke-miterlimit="1.5" d="
	M30.71,62.128l7.024,8.887c-4.085,2.208-6.824,6.195-6.824,10.764c0,6.955,6.327,12.593,14.13,12.593
	c1.555,0,3.046-0.232,4.445-0.646l0.083,7.951l15.336-2.953V84.993l18.338-22.811L30.71,62.128z"/>
</svg>
