<svg width="114" height="184" viewBox="0 0 114 184" fill="none" xmlns="http://www.w3.org/2000/svg">
<path d="M40.3297 136.428H34.7584V126.434H40.3297V127.466H35.9205V130.686H40.0631V131.712H35.9205V135.389H40.3297V136.428ZM47.5074 136.428V131.582C47.5074 130.971 47.3684 130.515 47.0904 130.214C46.8124 129.914 46.3772 129.763 45.7848 129.763C45.0009 129.763 44.4267 129.975 44.0621 130.399C43.6975 130.823 43.5152 131.522 43.5152 132.498V136.428H42.3805V128.936H43.3033L43.4879 129.962H43.5426C43.775 129.592 44.1009 129.308 44.5201 129.107C44.9394 128.902 45.4065 128.799 45.9215 128.799C46.8238 128.799 47.5029 129.018 47.9586 129.456C48.4143 129.889 48.6422 130.584 48.6422 131.541V136.428H47.5074ZM57.1119 128.936V129.654L55.7242 129.818C55.8518 129.977 55.9658 130.187 56.066 130.447C56.1663 130.702 56.2164 130.991 56.2164 131.315C56.2164 132.049 55.9658 132.634 55.4645 133.072C54.9632 133.509 54.275 133.728 53.4 133.728C53.1767 133.728 52.9671 133.71 52.7711 133.673C52.288 133.929 52.0465 134.25 52.0465 134.637C52.0465 134.842 52.1308 134.995 52.2994 135.095C52.468 135.191 52.7574 135.239 53.1676 135.239H54.4938C55.305 135.239 55.927 135.41 56.36 135.752C56.7975 136.093 57.0162 136.59 57.0162 137.242C57.0162 138.071 56.6835 138.702 56.0182 139.135C55.3528 139.573 54.3821 139.792 53.1061 139.792C52.1262 139.792 51.3697 139.609 50.8365 139.245C50.3079 138.88 50.0436 138.365 50.0436 137.7C50.0436 137.244 50.1894 136.85 50.4811 136.517C50.7727 136.185 51.1829 135.959 51.7115 135.84C51.5201 135.754 51.3583 135.619 51.2262 135.437C51.0986 135.255 51.0348 135.043 51.0348 134.801C51.0348 134.528 51.1077 134.289 51.2535 134.084C51.3994 133.879 51.6295 133.68 51.944 133.489C51.5566 133.329 51.2399 133.058 50.9938 132.675C50.7522 132.293 50.6315 131.855 50.6315 131.363C50.6315 130.543 50.8775 129.911 51.3697 129.469C51.8619 129.023 52.5592 128.799 53.4615 128.799C53.8535 128.799 54.2066 128.845 54.5211 128.936H57.1119ZM51.1373 137.686C51.1373 138.092 51.3082 138.399 51.65 138.609C51.9918 138.819 52.4817 138.923 53.1197 138.923C54.0722 138.923 54.7763 138.78 55.232 138.493C55.6923 138.21 55.9225 137.825 55.9225 137.338C55.9225 136.932 55.7971 136.649 55.5465 136.49C55.2958 136.335 54.8242 136.257 54.1315 136.257H52.7711C52.2561 136.257 51.8551 136.38 51.568 136.627C51.2809 136.873 51.1373 137.226 51.1373 137.686ZM51.7525 131.336C51.7525 131.86 51.9007 132.256 52.1969 132.525C52.4931 132.794 52.9055 132.928 53.4342 132.928C54.5416 132.928 55.0953 132.391 55.0953 131.315C55.0953 130.189 54.5348 129.627 53.4137 129.627C52.8805 129.627 52.4703 129.77 52.1832 130.057C51.8961 130.344 51.7525 130.77 51.7525 131.336ZM63.2574 136.428L63.0318 135.362H62.9772C62.6035 135.831 62.2298 136.15 61.8561 136.319C61.4869 136.483 61.0244 136.565 60.4684 136.565C59.7255 136.565 59.1422 136.374 58.7184 135.991C58.2991 135.608 58.0895 135.063 58.0895 134.357C58.0895 132.844 59.2994 132.051 61.7193 131.978L62.9908 131.937V131.472C62.9908 130.884 62.8632 130.451 62.608 130.173C62.3574 129.891 61.954 129.75 61.3981 129.75C60.7737 129.75 60.0673 129.941 59.2789 130.324L58.9303 129.456C59.2994 129.255 59.7027 129.098 60.1402 128.984C60.5823 128.87 61.0244 128.813 61.4664 128.813C62.3596 128.813 63.0205 129.011 63.4488 129.408C63.8818 129.804 64.0983 130.44 64.0983 131.315V136.428H63.2574ZM60.694 135.629C61.4003 135.629 61.954 135.435 62.3551 135.047C62.7607 134.66 62.9635 134.118 62.9635 133.421V132.744L61.8287 132.792C60.9264 132.824 60.2747 132.965 59.8736 133.215C59.4772 133.462 59.2789 133.847 59.2789 134.371C59.2789 134.781 59.402 135.093 59.6481 135.307C59.8987 135.521 60.2473 135.629 60.694 135.629ZM72.5748 128.936V129.654L71.1871 129.818C71.3147 129.977 71.4287 130.187 71.5289 130.447C71.6292 130.702 71.6793 130.991 71.6793 131.315C71.6793 132.049 71.4287 132.634 70.9274 133.072C70.4261 133.509 69.7379 133.728 68.8629 133.728C68.6396 133.728 68.43 133.71 68.234 133.673C67.7509 133.929 67.5094 134.25 67.5094 134.637C67.5094 134.842 67.5937 134.995 67.7623 135.095C67.9309 135.191 68.2203 135.239 68.6305 135.239H69.9566C70.7678 135.239 71.3899 135.41 71.8229 135.752C72.2604 136.093 72.4791 136.59 72.4791 137.242C72.4791 138.071 72.1464 138.702 71.4811 139.135C70.8157 139.573 69.845 139.792 68.569 139.792C67.5891 139.792 66.8326 139.609 66.2994 139.245C65.7708 138.88 65.5065 138.365 65.5065 137.7C65.5065 137.244 65.6523 136.85 65.944 136.517C66.2356 136.185 66.6458 135.959 67.1744 135.84C66.983 135.754 66.8212 135.619 66.6891 135.437C66.5615 135.255 66.4977 135.043 66.4977 134.801C66.4977 134.528 66.5706 134.289 66.7164 134.084C66.8622 133.879 67.0924 133.68 67.4068 133.489C67.0195 133.329 66.7027 133.058 66.4566 132.675C66.2151 132.293 66.0943 131.855 66.0943 131.363C66.0943 130.543 66.3404 129.911 66.8326 129.469C67.3248 129.023 68.0221 128.799 68.9244 128.799C69.3164 128.799 69.6695 128.845 69.984 128.936H72.5748ZM66.6002 137.686C66.6002 138.092 66.7711 138.399 67.1129 138.609C67.4547 138.819 67.9446 138.923 68.5826 138.923C69.5351 138.923 70.2392 138.78 70.6949 138.493C71.1552 138.21 71.3854 137.825 71.3854 137.338C71.3854 136.932 71.26 136.649 71.0094 136.49C70.7587 136.335 70.2871 136.257 69.5943 136.257H68.234C67.719 136.257 67.318 136.38 67.0309 136.627C66.7438 136.873 66.6002 137.226 66.6002 137.686ZM67.2154 131.336C67.2154 131.86 67.3636 132.256 67.6598 132.525C67.956 132.794 68.3684 132.928 68.8971 132.928C70.0045 132.928 70.5582 132.391 70.5582 131.315C70.5582 130.189 69.9977 129.627 68.8766 129.627C68.3434 129.627 67.9332 129.77 67.6461 130.057C67.359 130.344 67.2154 130.77 67.2154 131.336ZM77.2779 136.565C76.1705 136.565 75.2955 136.228 74.6529 135.553C74.0149 134.879 73.6959 133.942 73.6959 132.744C73.6959 131.536 73.9921 130.577 74.5846 129.866C75.1816 129.155 75.9814 128.799 76.984 128.799C77.9228 128.799 78.6656 129.109 79.2125 129.729C79.7594 130.344 80.0328 131.158 80.0328 132.17V132.887H74.8717C74.8945 133.767 75.1155 134.435 75.5348 134.89C75.9586 135.346 76.5533 135.574 77.319 135.574C78.1256 135.574 78.9231 135.405 79.7115 135.068V136.08C79.3105 136.253 78.93 136.376 78.5699 136.449C78.2145 136.526 77.7838 136.565 77.2779 136.565ZM76.9703 129.75C76.3688 129.75 75.888 129.946 75.5279 130.338C75.1725 130.729 74.9628 131.272 74.899 131.964H78.816C78.816 131.249 78.6565 130.702 78.3375 130.324C78.0185 129.941 77.5628 129.75 76.9703 129.75ZM32.7623 148.346C32.7623 149.358 32.416 150.137 31.7233 150.684C31.0351 151.227 30.0484 151.498 28.7633 151.498H27.5875V155.428H26.4254V145.434H29.0162C31.5136 145.434 32.7623 146.405 32.7623 148.346ZM27.5875 150.5H28.6334C29.6634 150.5 30.4085 150.333 30.8688 150.001C31.329 149.668 31.5592 149.135 31.5592 148.401C31.5592 147.74 31.3427 147.248 30.9098 146.924C30.4768 146.601 29.8024 146.439 28.8863 146.439H27.5875V150.5ZM38.108 147.799C38.4407 147.799 38.7392 147.827 39.0035 147.881L38.8463 148.934C38.5364 148.866 38.263 148.832 38.026 148.832C37.4199 148.832 36.9003 149.078 36.4674 149.57C36.039 150.062 35.8248 150.675 35.8248 151.409V155.428H34.69V147.936H35.6266L35.7565 149.324H35.8111C36.0891 148.836 36.4241 148.46 36.816 148.196C37.208 147.932 37.6386 147.799 38.108 147.799ZM46.8717 151.675C46.8717 152.897 46.5641 153.852 45.9488 154.54C45.3336 155.223 44.4837 155.565 43.399 155.565C42.7291 155.565 42.1344 155.408 41.6149 155.093C41.0953 154.779 40.6943 154.328 40.4117 153.74C40.1292 153.152 39.9879 152.464 39.9879 151.675C39.9879 150.454 40.2932 149.504 40.9039 148.825C41.5146 148.141 42.3622 147.799 43.4469 147.799C44.4951 147.799 45.3268 148.148 45.942 148.845C46.5618 149.543 46.8717 150.486 46.8717 151.675ZM41.1637 151.675C41.1637 152.632 41.3551 153.362 41.7379 153.863C42.1207 154.364 42.6835 154.615 43.4264 154.615C44.1692 154.615 44.732 154.366 45.1149 153.87C45.5022 153.368 45.6959 152.637 45.6959 151.675C45.6959 150.723 45.5022 150.001 45.1149 149.508C44.732 149.012 44.1647 148.763 43.4127 148.763C42.6699 148.763 42.1093 149.007 41.7311 149.495C41.3528 149.982 41.1637 150.709 41.1637 151.675ZM53.7008 153.384C53.7008 154.082 53.441 154.619 52.9215 154.998C52.402 155.376 51.6728 155.565 50.734 155.565C49.7405 155.565 48.9658 155.408 48.4098 155.093V154.041C48.7698 154.223 49.1549 154.366 49.565 154.471C49.9798 154.576 50.3785 154.629 50.7613 154.629C51.3538 154.629 51.8095 154.535 52.1285 154.348C52.4475 154.157 52.607 153.867 52.607 153.48C52.607 153.188 52.4794 152.94 52.2242 152.735C51.9736 152.525 51.4814 152.279 50.7477 151.997C50.0504 151.737 49.5537 151.511 49.2574 151.32C48.9658 151.124 48.747 150.903 48.6012 150.657C48.4599 150.411 48.3893 150.117 48.3893 149.775C48.3893 149.164 48.6376 148.684 49.1344 148.333C49.6311 147.977 50.3124 147.799 51.1783 147.799C51.985 147.799 52.7734 147.964 53.5436 148.292L53.1402 149.214C52.3883 148.905 51.707 148.75 51.0963 148.75C50.5585 148.75 50.1529 148.834 49.8795 149.003C49.6061 149.171 49.4693 149.404 49.4693 149.7C49.4693 149.9 49.5195 150.071 49.6197 150.213C49.7246 150.354 49.8909 150.488 50.1188 150.616C50.3466 150.743 50.7841 150.928 51.4313 151.17C52.3199 151.493 52.9192 151.819 53.2291 152.147C53.5436 152.475 53.7008 152.888 53.7008 153.384ZM59.0397 155.565C58.552 155.565 58.1054 155.476 57.6998 155.298C57.2988 155.116 56.9615 154.838 56.6881 154.464H56.6061C56.6608 154.902 56.6881 155.317 56.6881 155.709V158.792H55.5533V147.936H56.4762L56.6334 148.962H56.6881C56.9798 148.551 57.3193 148.255 57.7066 148.073C58.094 147.891 58.5384 147.799 59.0397 147.799C60.0331 147.799 60.7988 148.139 61.3365 148.818C61.8789 149.497 62.15 150.45 62.15 151.675C62.15 152.906 61.8743 153.863 61.3229 154.547C60.776 155.226 60.0149 155.565 59.0397 155.565ZM58.8756 148.763C58.11 148.763 57.5563 148.975 57.2145 149.399C56.8727 149.823 56.6972 150.497 56.6881 151.422V151.675C56.6881 152.728 56.8636 153.482 57.2145 153.938C57.5654 154.389 58.1282 154.615 58.9029 154.615C59.5501 154.615 60.0559 154.353 60.4205 153.829C60.7897 153.305 60.9742 152.582 60.9742 151.662C60.9742 150.727 60.7897 150.012 60.4205 149.515C60.0559 149.014 59.541 148.763 58.8756 148.763ZM67.3043 155.565C66.1969 155.565 65.3219 155.228 64.6793 154.553C64.0413 153.879 63.7223 152.942 63.7223 151.744C63.7223 150.536 64.0185 149.577 64.6109 148.866C65.208 148.155 66.0078 147.799 67.0104 147.799C67.9492 147.799 68.692 148.109 69.2389 148.729C69.7858 149.344 70.0592 150.158 70.0592 151.17V151.887H64.8981C64.9208 152.767 65.1419 153.435 65.5611 153.89C65.985 154.346 66.5797 154.574 67.3453 154.574C68.152 154.574 68.9495 154.405 69.7379 154.068V155.08C69.3369 155.253 68.9563 155.376 68.5963 155.449C68.2408 155.526 67.8102 155.565 67.3043 155.565ZM66.9967 148.75C66.3951 148.75 65.9143 148.946 65.5543 149.338C65.1988 149.729 64.9892 150.272 64.9254 150.964H68.8424C68.8424 150.249 68.6829 149.702 68.3639 149.324C68.0449 148.941 67.5891 148.75 66.9967 148.75ZM74.9947 155.565C73.9101 155.565 73.0693 155.232 72.4723 154.567C71.8798 153.897 71.5836 152.951 71.5836 151.73C71.5836 150.477 71.8844 149.508 72.4859 148.825C73.0921 148.141 73.9534 147.799 75.0699 147.799C75.43 147.799 75.79 147.838 76.15 147.916C76.51 147.993 76.7926 148.084 76.9977 148.189L76.649 149.153C76.3984 149.053 76.1249 148.971 75.8287 148.907C75.5325 148.839 75.2705 148.804 75.0426 148.804C73.5205 148.804 72.7594 149.775 72.7594 151.716C72.7594 152.637 72.944 153.343 73.3131 153.836C73.6868 154.328 74.2382 154.574 74.9674 154.574C75.5917 154.574 76.232 154.439 76.8883 154.171V155.175C76.387 155.435 75.7558 155.565 74.9947 155.565ZM81.0924 154.629C81.2929 154.629 81.4866 154.615 81.6734 154.588C81.8603 154.556 82.0084 154.524 82.1178 154.492V155.36C81.9947 155.419 81.8124 155.467 81.5709 155.504C81.3339 155.545 81.1197 155.565 80.9283 155.565C79.4791 155.565 78.7545 154.802 78.7545 153.275V148.818H77.6813V148.271L78.7545 147.799L79.233 146.2H79.8893V147.936H82.0631V148.818H79.8893V153.227C79.8893 153.678 79.9964 154.025 80.2106 154.266C80.4247 154.508 80.7187 154.629 81.0924 154.629ZM88.4547 153.384C88.4547 154.082 88.1949 154.619 87.6754 154.998C87.1559 155.376 86.4267 155.565 85.4879 155.565C84.4944 155.565 83.7197 155.408 83.1637 155.093V154.041C83.5237 154.223 83.9088 154.366 84.319 154.471C84.7337 154.576 85.1324 154.629 85.5152 154.629C86.1077 154.629 86.5634 154.535 86.8824 154.348C87.2014 154.157 87.3609 153.867 87.3609 153.48C87.3609 153.188 87.2333 152.94 86.9781 152.735C86.7275 152.525 86.2353 152.279 85.5016 151.997C84.8043 151.737 84.3076 151.511 84.0113 151.32C83.7197 151.124 83.5009 150.903 83.3551 150.657C83.2138 150.411 83.1432 150.117 83.1432 149.775C83.1432 149.164 83.3915 148.684 83.8883 148.333C84.385 147.977 85.0664 147.799 85.9322 147.799C86.7389 147.799 87.5273 147.964 88.2975 148.292L87.8941 149.214C87.1422 148.905 86.4609 148.75 85.8502 148.75C85.3124 148.75 84.9068 148.834 84.6334 149.003C84.36 149.171 84.2233 149.404 84.2233 149.7C84.2233 149.9 84.2734 150.071 84.3736 150.213C84.4785 150.354 84.6448 150.488 84.8727 150.616C85.1005 150.743 85.538 150.928 86.1852 151.17C87.0738 151.493 87.6731 151.819 87.983 152.147C88.2975 152.475 88.4547 152.888 88.4547 153.384Z" fill="white"/>
<path d="M2 54.4935L2 157.49C2 170.791 11.8578 181.59 23.9999 181.59H89.9999C102.142 181.59 112 170.791 112 157.49L112 26.1004C112 12.7989 102.142 1.99999 89.9999 1.99999H23.9999C11.8578 1.99999 2 12.7989 2 26.1004V35.5906" stroke="#85BB25" stroke-width="3" stroke-miterlimit="1.5" stroke-linecap="round" stroke-linejoin="round"/>
<path d="M58.7999 52.8154L55.1442 56.8978L54.0432 55.6682L52.8391 57.0128L54.5422 58.9147C54.7083 59.1001 54.9262 59.1933 55.1442 59.1933C55.3622 59.1933 55.5802 59.1001 55.7463 58.9147L60.004 54.16L58.7999 52.8154Z" fill="#86BC25"/>
<path d="M73.8779 69.6535C74.0959 69.6535 74.3139 69.5603 74.4799 69.3749L78.7376 64.6202L77.5336 63.2756L73.8779 67.358L72.7768 66.1284L71.5728 67.473L73.2758 69.3749C73.4419 69.5603 73.6599 69.6535 73.8779 69.6535Z" fill="#86BC25"/>
<path d="M75.5811 90.5736C73.6379 90.5736 71.8862 91.4922 70.6438 92.9547L57.3606 82.0838C58.1116 80.6678 58.5502 79.0218 58.5502 77.2607C58.5502 76.4438 58.448 75.6555 58.2734 74.8986L69.5343 70.2904C70.6694 72.7324 72.9515 74.4079 75.5811 74.4079C79.3372 74.4079 82.3934 70.995 82.3934 66.8005C82.3934 62.606 79.3372 59.1931 75.5811 59.1931C71.8249 59.1931 68.7687 62.606 68.7687 66.8005C68.7687 67.3872 68.8343 67.9559 68.9475 68.5045L57.6859 73.1137C56.8471 71.1909 55.448 69.6342 53.7236 68.7033L55.3407 63.7537C55.8261 63.8773 56.3285 63.9477 56.8471 63.9477C60.6033 63.9477 63.6595 60.5348 63.6595 56.3403C63.6595 52.1458 60.6033 48.7329 56.8471 48.7329C53.0909 48.7329 50.0348 52.1458 50.0348 56.3403C50.0348 59.2853 51.5437 61.8386 53.7407 63.1023L52.1227 68.0529C51.4534 67.8627 50.756 67.7514 50.0348 67.7514C48.6587 67.7514 47.3618 68.1261 46.2096 68.7765L42.4603 62.1914C43.9649 60.7944 44.9255 58.691 44.9255 56.3403C44.9255 52.1458 41.8693 48.7329 38.1131 48.7329C34.357 48.7329 31.3008 52.1458 31.3008 56.3403C31.3008 60.5348 34.357 63.9477 38.1131 63.9477C39.1546 63.9477 40.1381 63.6776 41.022 63.2088L44.7731 69.7988C42.7958 71.5418 41.5193 74.2348 41.5193 77.2607C41.5193 80.1353 42.6723 82.7114 44.4835 84.4563L41.2877 89.5542C40.3391 88.9932 39.2593 88.6718 38.1131 88.6718C34.357 88.6718 31.3008 92.0846 31.3008 96.2792C31.3008 100.474 34.357 103.887 38.1131 103.887C41.8693 103.887 44.9255 100.474 44.9255 96.2792C44.9255 94.0473 44.0552 92.0437 42.68 90.6506L45.8767 85.5508C47.108 86.3239 48.525 86.7699 50.0348 86.7699C52.5417 86.7699 54.7915 85.547 56.3515 83.6147L69.6322 94.4838C69.0838 95.5802 68.7687 96.8393 68.7687 98.181C68.7687 102.376 71.8249 105.788 75.5811 105.788C79.3372 105.788 82.3934 102.376 82.3934 98.181C82.3934 93.9865 79.3372 90.5736 75.5811 90.5736ZM75.5811 61.0949C78.3988 61.0949 80.6903 63.6539 80.6903 66.8005C80.6903 69.9471 78.3988 72.506 75.5811 72.506C72.7633 72.506 70.4718 69.9471 70.4718 66.8005C70.4718 63.6539 72.7633 61.0949 75.5811 61.0949ZM51.7378 56.3403C51.7378 53.1937 54.0293 50.6348 56.8471 50.6348C59.6649 50.6348 61.9564 53.1937 61.9564 56.3403C61.9564 59.4869 59.6649 62.0459 56.8471 62.0459C54.0293 62.0459 51.7378 59.4869 51.7378 56.3403ZM33.0039 56.3403C33.0039 53.1937 35.2954 50.6348 38.1131 50.6348C40.9309 50.6348 43.2224 53.1937 43.2224 56.3403C43.2224 59.4869 40.9309 62.0459 38.1131 62.0459C35.2954 62.0459 33.0039 59.4869 33.0039 56.3403ZM43.2224 96.2792C43.2224 99.4258 40.9309 101.985 38.1131 101.985C35.2954 101.985 33.0039 99.4258 33.0039 96.2792C33.0039 93.1326 35.2954 90.5736 38.1131 90.5736C40.9309 90.5736 43.2224 93.1326 43.2224 96.2792ZM50.0348 84.8681C46.2786 84.8681 43.2224 81.4552 43.2224 77.2607C43.2224 73.0661 46.2786 69.6533 50.0348 69.6533C53.7909 69.6533 56.8471 73.0661 56.8471 77.2607C56.8471 81.4552 53.7909 84.8681 50.0348 84.8681ZM75.5811 103.887C72.7633 103.887 70.4718 101.328 70.4718 98.181C70.4718 95.0344 72.7633 92.4755 75.5811 92.4755C78.3988 92.4755 80.6903 95.0344 80.6903 98.181C80.6903 101.328 78.3988 103.887 75.5811 103.887Z" fill="#86BC25"/>
<path d="M36.4101 96.8365L35.3091 95.6069L34.105 96.9515L35.8081 98.8534C35.9741 99.0388 36.1921 99.132 36.4101 99.132C36.6281 99.132 36.8461 99.0388 37.0122 98.8534L41.2699 94.0988L40.0658 92.7542L36.4101 96.8365Z" fill="#86BC25"/>
</svg>
