<svg width="114" height="184" viewBox="0 0 114 184" fill="none" xmlns="http://www.w3.org/2000/svg">
<path d="M34.3592 129.539H33.0331L27.5712 121.151H27.5165C27.5894 122.135 27.6258 123.038 27.6258 123.858V129.539H26.5526V119.544H27.8651L33.3133 127.898H33.368C33.3589 127.775 33.3384 127.381 33.3065 126.715C33.2746 126.045 33.2632 125.567 33.2723 125.28V119.544H34.3592V129.539ZM40.1014 129.675C38.994 129.675 38.119 129.338 37.4764 128.664C36.8384 127.989 36.5194 127.053 36.5194 125.854C36.5194 124.646 36.8156 123.687 37.4081 122.976C38.0051 122.265 38.8049 121.91 39.8075 121.91C40.7463 121.91 41.4891 122.22 42.036 122.839C42.5829 123.455 42.8563 124.268 42.8563 125.28V125.998H37.6952C37.718 126.877 37.939 127.545 38.3583 128C38.7821 128.456 39.3768 128.684 40.1424 128.684C40.9491 128.684 41.7466 128.515 42.535 128.178V129.19C42.134 129.363 41.7534 129.486 41.3934 129.559C41.038 129.637 40.6073 129.675 40.1014 129.675ZM39.7938 122.86C39.1922 122.86 38.7115 123.056 38.3514 123.448C37.996 123.84 37.7863 124.382 37.7225 125.075H41.6395C41.6395 124.359 41.48 123.812 41.161 123.434C40.842 123.051 40.3863 122.86 39.7938 122.86ZM50.9296 122.046V122.764L49.5419 122.928C49.6695 123.088 49.7834 123.297 49.8837 123.557C49.9839 123.812 50.034 124.102 50.034 124.425C50.034 125.159 49.7834 125.745 49.2821 126.182C48.7808 126.62 48.0926 126.838 47.2176 126.838C46.9943 126.838 46.7847 126.82 46.5887 126.784C46.1057 127.039 45.8641 127.36 45.8641 127.748C45.8641 127.953 45.9484 128.105 46.1171 128.206C46.2857 128.301 46.5751 128.349 46.9852 128.349H48.3114C49.1226 128.349 49.7447 128.52 50.1776 128.862C50.6151 129.204 50.8339 129.7 50.8339 130.352C50.8339 131.181 50.5012 131.813 49.8358 132.246C49.1704 132.683 48.1997 132.902 46.9237 132.902C45.9439 132.902 45.1874 132.72 44.6542 132.355C44.1255 131.99 43.8612 131.475 43.8612 130.81C43.8612 130.354 44.007 129.96 44.2987 129.627C44.5904 129.295 45.0005 129.069 45.5292 128.951C45.3378 128.864 45.176 128.73 45.0438 128.547C44.9162 128.365 44.8524 128.153 44.8524 127.912C44.8524 127.638 44.9253 127.399 45.0712 127.194C45.217 126.989 45.4471 126.791 45.7616 126.599C45.3742 126.44 45.0575 126.168 44.8114 125.786C44.5699 125.403 44.4491 124.965 44.4491 124.473C44.4491 123.653 44.6952 123.022 45.1874 122.58C45.6796 122.133 46.3768 121.91 47.2792 121.91C47.6711 121.91 48.0243 121.955 48.3387 122.046H50.9296ZM44.9549 130.796C44.9549 131.202 45.1258 131.51 45.4676 131.719C45.8094 131.929 46.2993 132.034 46.9374 132.034C47.8898 132.034 48.5939 131.89 49.0497 131.603C49.51 131.32 49.7401 130.935 49.7401 130.448C49.7401 130.042 49.6148 129.76 49.3641 129.6C49.1135 129.445 48.6418 129.368 47.9491 129.368H46.5887C46.0738 129.368 45.6727 129.491 45.3856 129.737C45.0985 129.983 44.9549 130.336 44.9549 130.796ZM45.5702 124.446C45.5702 124.97 45.7183 125.366 46.0145 125.635C46.3107 125.904 46.7232 126.039 47.2518 126.039C48.3592 126.039 48.913 125.501 48.913 124.425C48.913 123.3 48.3524 122.737 47.2313 122.737C46.6981 122.737 46.288 122.88 46.0008 123.167C45.7137 123.455 45.5702 123.881 45.5702 124.446ZM58.9344 125.786C58.9344 127.007 58.6268 127.962 58.0116 128.65C57.3964 129.333 56.5464 129.675 55.4618 129.675C54.7919 129.675 54.1971 129.518 53.6776 129.204C53.1581 128.889 52.757 128.438 52.4745 127.85C52.1919 127.262 52.0506 126.574 52.0506 125.786C52.0506 124.564 52.356 123.614 52.9667 122.935C53.5773 122.251 54.425 121.91 55.5096 121.91C56.5578 121.91 57.3895 122.258 58.0047 122.956C58.6245 123.653 58.9344 124.596 58.9344 125.786ZM53.2264 125.786C53.2264 126.743 53.4178 127.472 53.8006 127.973C54.1835 128.474 54.7463 128.725 55.4891 128.725C56.232 128.725 56.7948 128.477 57.1776 127.98C57.565 127.479 57.7587 126.747 57.7587 125.786C57.7587 124.833 57.565 124.111 57.1776 123.619C56.7948 123.122 56.2274 122.874 55.4755 122.874C54.7326 122.874 54.1721 123.117 53.7938 123.605C53.4156 124.093 53.2264 124.819 53.2264 125.786ZM63.3505 128.739C63.551 128.739 63.7447 128.725 63.9315 128.698C64.1184 128.666 64.2665 128.634 64.3758 128.602V129.47C64.2528 129.529 64.0705 129.577 63.829 129.614C63.592 129.655 63.3778 129.675 63.1864 129.675C61.7372 129.675 61.0126 128.912 61.0126 127.385V122.928H59.9393V122.381L61.0126 121.91L61.4911 120.31H62.1473V122.046H64.3212V122.928H62.1473V127.337C62.1473 127.789 62.2544 128.135 62.4686 128.376C62.6828 128.618 62.9768 128.739 63.3505 128.739ZM67.0145 129.539H65.8797V122.046H67.0145V129.539ZM65.784 120.016C65.784 119.756 65.8478 119.567 65.9755 119.449C66.1031 119.326 66.2626 119.264 66.454 119.264C66.6363 119.264 66.7935 119.326 66.9256 119.449C67.0578 119.572 67.1239 119.761 67.1239 120.016C67.1239 120.271 67.0578 120.463 66.9256 120.59C66.7935 120.713 66.6363 120.775 66.454 120.775C66.2626 120.775 66.1031 120.713 65.9755 120.59C65.8478 120.463 65.784 120.271 65.784 120.016ZM74.0282 129.539L73.8026 128.472H73.7479C73.3742 128.942 73.0005 129.261 72.6268 129.429C72.2577 129.593 71.7951 129.675 71.2391 129.675C70.4963 129.675 69.913 129.484 69.4891 129.101C69.0699 128.718 68.8602 128.174 68.8602 127.467C68.8602 125.954 70.0702 125.161 72.4901 125.088L73.7616 125.047V124.583C73.7616 123.995 73.634 123.562 73.3788 123.284C73.1281 123.001 72.7248 122.86 72.1688 122.86C71.5445 122.86 70.8381 123.051 70.0497 123.434L69.701 122.566C70.0702 122.365 70.4735 122.208 70.911 122.094C71.3531 121.98 71.7951 121.923 72.2372 121.923C73.1304 121.923 73.7912 122.122 74.2196 122.518C74.6525 122.915 74.869 123.55 74.869 124.425V129.539H74.0282ZM71.4647 128.739C72.1711 128.739 72.7248 128.545 73.1258 128.158C73.5314 127.77 73.7342 127.228 73.7342 126.531V125.854L72.5995 125.902C71.6971 125.934 71.0454 126.075 70.6444 126.326C70.2479 126.572 70.0497 126.957 70.0497 127.481C70.0497 127.891 70.1727 128.203 70.4188 128.417C70.6695 128.632 71.0181 128.739 71.4647 128.739ZM79.6337 128.739C79.8342 128.739 80.0279 128.725 80.2147 128.698C80.4016 128.666 80.5497 128.634 80.659 128.602V129.47C80.536 129.529 80.3537 129.577 80.1122 129.614C79.8752 129.655 79.661 129.675 79.4696 129.675C78.0204 129.675 77.2958 128.912 77.2958 127.385V122.928H76.2225V122.381L77.2958 121.91L77.7743 120.31H78.4305V122.046H80.6044V122.928H78.4305V127.337C78.4305 127.789 78.5376 128.135 78.7518 128.376C78.966 128.618 79.26 128.739 79.6337 128.739ZM85.328 129.675C84.2206 129.675 83.3456 129.338 82.703 128.664C82.065 127.989 81.746 127.053 81.746 125.854C81.746 124.646 82.0422 123.687 82.6346 122.976C83.2316 122.265 84.0314 121.91 85.034 121.91C85.9728 121.91 86.7157 122.22 87.2626 122.839C87.8094 123.455 88.0829 124.268 88.0829 125.28V125.998H82.9217C82.9445 126.877 83.1656 127.545 83.5848 128C84.0087 128.456 84.6034 128.684 85.369 128.684C86.1756 128.684 86.9732 128.515 87.7616 128.178V129.19C87.3605 129.363 86.98 129.486 86.62 129.559C86.2645 129.637 85.8338 129.675 85.328 129.675ZM85.0204 122.86C84.4188 122.86 83.938 123.056 83.578 123.448C83.2225 123.84 83.0129 124.382 82.9491 125.075H86.8661C86.8661 124.359 86.7066 123.812 86.3876 123.434C86.0685 123.051 85.6128 122.86 85.0204 122.86ZM45.2557 141.457C45.2557 142.468 44.9094 143.248 44.2167 143.794C43.5285 144.337 42.5419 144.608 41.2567 144.608H40.0809V148.539H38.9188V138.544H41.5096C44.007 138.544 45.2557 139.515 45.2557 141.457ZM40.0809 143.61H41.1268C42.1568 143.61 42.9019 143.444 43.3622 143.111C43.8225 142.778 44.0526 142.245 44.0526 141.511C44.0526 140.85 43.8361 140.358 43.4032 140.035C42.9702 139.711 42.2958 139.549 41.3797 139.549H40.0809V143.61ZM50.6014 140.91C50.9341 140.91 51.2326 140.937 51.4969 140.992L51.3397 142.044C51.0298 141.976 50.7564 141.942 50.5194 141.942C49.9133 141.942 49.3937 142.188 48.9608 142.68C48.5324 143.172 48.3182 143.785 48.3182 144.519V148.539H47.1835V141.046H48.12L48.2499 142.434H48.3046C48.5825 141.946 48.9175 141.57 49.3094 141.306C49.7014 141.042 50.132 140.91 50.6014 140.91ZM54.0331 148.539H52.8983V141.046H54.0331V148.539ZM52.8026 139.016C52.8026 138.756 52.8664 138.567 52.994 138.449C53.1216 138.326 53.2811 138.264 53.4725 138.264C53.6548 138.264 53.812 138.326 53.9442 138.449C54.0764 138.572 54.1424 138.761 54.1424 139.016C54.1424 139.271 54.0764 139.463 53.9442 139.59C53.812 139.713 53.6548 139.775 53.4725 139.775C53.2811 139.775 53.1216 139.713 52.994 139.59C52.8664 139.463 52.8026 139.271 52.8026 139.016ZM59.4335 148.675C58.3488 148.675 57.508 148.343 56.911 147.677C56.3186 147.007 56.0223 146.062 56.0223 144.84C56.0223 143.587 56.3231 142.619 56.9247 141.935C57.5308 141.251 58.3921 140.91 59.5087 140.91C59.8687 140.91 60.2287 140.948 60.5887 141.026C60.9488 141.103 61.2313 141.194 61.4364 141.299L61.0878 142.263C60.8371 142.163 60.5637 142.081 60.2674 142.017C59.9712 141.949 59.7092 141.915 59.4813 141.915C57.9592 141.915 57.1981 142.885 57.1981 144.827C57.1981 145.747 57.3827 146.454 57.7518 146.946C58.1255 147.438 58.6769 147.684 59.4061 147.684C60.0305 147.684 60.6708 147.55 61.327 147.281V148.286C60.8257 148.545 60.1945 148.675 59.4335 148.675ZM66.2762 148.675C65.1688 148.675 64.2938 148.338 63.6512 147.664C63.0132 146.989 62.6942 146.053 62.6942 144.854C62.6942 143.646 62.9904 142.687 63.5829 141.976C64.1799 141.265 64.9797 140.91 65.9823 140.91C66.9211 140.91 67.6639 141.22 68.2108 141.839C68.7577 142.455 69.0311 143.268 69.0311 144.28V144.998H63.87C63.8928 145.877 64.1138 146.545 64.5331 147C64.9569 147.456 65.5516 147.684 66.3172 147.684C67.1239 147.684 67.9214 147.515 68.7098 147.178V148.19C68.3088 148.363 67.9283 148.486 67.5682 148.559C67.2128 148.637 66.7821 148.675 66.2762 148.675ZM65.9686 141.86C65.3671 141.86 64.8863 142.056 64.5262 142.448C64.1708 142.84 63.9611 143.382 63.8973 144.075H67.8143C67.8143 143.359 67.6548 142.812 67.3358 142.434C67.0168 142.051 66.5611 141.86 65.9686 141.86ZM75.8055 146.495C75.8055 147.192 75.5458 147.73 75.0262 148.108C74.5067 148.486 73.7775 148.675 72.8387 148.675C71.8452 148.675 71.0705 148.518 70.5145 148.204V147.151C70.8745 147.333 71.2596 147.477 71.6698 147.582C72.0845 147.686 72.4833 147.739 72.8661 147.739C73.4585 147.739 73.9143 147.645 74.2333 147.458C74.5523 147.267 74.7118 146.978 74.7118 146.59C74.7118 146.299 74.5842 146.05 74.329 145.845C74.0783 145.636 73.5861 145.389 72.8524 145.107C72.1551 144.847 71.6584 144.622 71.3622 144.43C71.0705 144.234 70.8518 144.013 70.7059 143.767C70.5646 143.521 70.494 143.227 70.494 142.885C70.494 142.275 70.7424 141.794 71.2391 141.443C71.7359 141.087 72.4172 140.91 73.2831 140.91C74.0897 140.91 74.8781 141.074 75.6483 141.402L75.245 142.325C74.493 142.015 73.8117 141.86 73.201 141.86C72.6633 141.86 72.2577 141.944 71.9842 142.113C71.7108 142.281 71.5741 142.514 71.5741 142.81C71.5741 143.011 71.6242 143.181 71.7245 143.323C71.8293 143.464 71.9956 143.598 72.2235 143.726C72.4514 143.854 72.8889 144.038 73.536 144.28C74.4247 144.603 75.024 144.929 75.3339 145.257C75.6483 145.585 75.8055 145.998 75.8055 146.495Z" fill="white"/>
<path d="M2 54.4935L2 157.49C2 170.791 11.8578 181.59 23.9999 181.59H89.9999C102.142 181.59 112 170.791 112 157.49L112 26.1004C112 12.7989 102.142 1.99999 89.9999 1.99999H23.9999C11.8578 1.99999 2 12.7989 2 26.1004V35.5906" stroke="#85BB25" stroke-width="3" stroke-miterlimit="1.5" stroke-linecap="round" stroke-linejoin="round"/>
<path d="M75.5155 79.6218L74.5538 80.5835L68.1105 87.0365H62.3403C63.5858 86.0306 64.5279 84.699 65.0619 83.1897H66.5814C67.3465 83.1897 68.0804 82.8857 68.6214 82.3447C69.1625 81.8036 69.4665 81.0698 69.4665 80.3046C69.4665 79.5394 69.1625 78.8056 68.6214 78.2646C68.0804 77.7235 67.3465 77.4195 66.5814 77.4195H65.6197V76.4578H67.5431V74.5344H65.687L66.5814 62.0997C66.5898 61.9681 66.5712 61.8361 66.5265 61.7121C66.4818 61.588 66.4121 61.4744 66.3217 61.3784C66.232 61.2817 66.1234 61.2045 66.0027 61.1516C65.8819 61.0986 65.7515 61.0711 65.6197 61.0707H48.3091C48.1773 61.0711 48.0469 61.0986 47.9261 61.1516C47.8053 61.2045 47.6967 61.2817 47.6071 61.3784C47.5167 61.4744 47.4469 61.588 47.4023 61.7121C47.3576 61.8361 47.3389 61.9681 47.3474 62.0997L48.2418 74.5344H46.3857V76.4578H48.3091V77.4195H47.3474C46.5822 77.4195 45.8484 77.7235 45.3074 78.2646C44.7663 78.8056 44.4623 79.5394 44.4623 80.3046C44.4623 81.0698 44.7663 81.8036 45.3074 82.3447C45.8484 82.8857 46.5822 83.1897 47.3474 83.1897H48.8188C49.3528 84.699 50.2949 86.0306 51.5404 87.0365H45.8183L39.375 80.5835L38.4133 79.6218C37.7221 78.9306 36.7846 78.5423 35.8071 78.5423C34.8295 78.5423 33.8921 78.9306 33.2009 79.6218C32.5097 80.313 32.1213 81.2505 32.1213 82.228C32.1213 83.2055 32.5097 84.143 33.2009 84.8342L34.1626 85.7959L44.4623 96.0861V101.462C44.4623 101.717 44.5637 101.962 44.744 102.142C44.9244 102.322 45.169 102.424 45.424 102.424H68.5048C68.7598 102.424 69.0044 102.322 69.1848 102.142C69.3651 101.962 69.4665 101.717 69.4665 101.462V96.0861L79.7662 85.7959L80.7279 84.8342C81.4191 84.143 81.8074 83.2055 81.8074 82.228C81.8074 81.2505 81.4191 80.313 80.7279 79.6218C80.0367 78.9306 79.0992 78.5423 78.1217 78.5423C77.1442 78.5423 76.2067 78.9306 75.5155 79.6218ZM79.3623 80.9874C79.5269 81.1494 79.6576 81.3425 79.7468 81.5555C79.836 81.7685 79.882 81.9971 79.882 82.228C79.882 82.4589 79.836 82.6875 79.7468 82.9005C79.6576 83.1135 79.5269 83.3066 79.3623 83.4686L79.0834 83.7571L76.5926 81.2663L76.8811 80.9874C77.0431 80.8228 77.2362 80.6921 77.4492 80.6029C77.6622 80.5137 77.8908 80.4678 78.1217 80.4678C78.3526 80.4678 78.5812 80.5137 78.7942 80.6029C79.0072 80.6921 79.2003 80.8228 79.3623 80.9874ZM59.0128 88.9599L56.9644 92.0373L54.916 88.9599H59.0128ZM54.0793 91.1718L56.1662 94.2973C56.2542 94.4282 56.373 94.5355 56.5122 94.6096C56.6514 94.6838 56.8067 94.7226 56.9644 94.7226C57.1221 94.7226 57.2774 94.6838 57.4166 94.6096C57.5558 94.5355 57.6746 94.4282 57.7626 94.2973L59.8495 91.1718V100.5H54.0793V91.1718ZM52.1559 100.5H50.2325V88.9599H52.1559V100.5ZM61.7729 88.9599H63.6963V100.5H61.7729V88.9599ZM66.5814 79.3429C66.8364 79.3429 67.081 79.4442 67.2614 79.6246C67.4417 79.8049 67.5431 80.0496 67.5431 80.3046C67.5431 80.5597 67.4417 80.8043 67.2614 80.9846C67.081 81.165 66.8364 81.2663 66.5814 81.2663H65.562C65.6006 80.9472 65.6199 80.6261 65.6197 80.3046V79.3429H66.5814ZM64.5906 62.9941L64.0329 70.6876H49.8959L49.3381 62.9941H64.5906ZM50.0306 72.611H63.8982L63.7636 74.5344H50.1652L50.0306 72.611ZM47.3474 81.2663C47.0924 81.2663 46.8478 81.165 46.6674 80.9846C46.487 80.8043 46.3857 80.5597 46.3857 80.3046C46.3857 80.0496 46.487 79.8049 46.6674 79.6246C46.8478 79.4442 47.0924 79.3429 47.3474 79.3429H48.3091V80.3046C48.3089 80.6261 48.3281 80.9472 48.3668 81.2663H47.3474ZM50.2325 80.3046V76.4578H63.6963V80.3046C63.6963 82.09 62.987 83.8023 61.7246 85.0648C60.4621 86.3272 58.7498 87.0365 56.9644 87.0365C55.179 87.0365 53.4667 86.3272 52.2042 85.0648C50.9418 83.8023 50.2325 82.09 50.2325 80.3046ZM34.5665 80.9874C34.7285 80.8228 34.9216 80.6921 35.1345 80.6029C35.3475 80.5137 35.5761 80.4678 35.8071 80.4678C36.038 80.4678 36.2666 80.5137 36.4796 80.6029C36.6926 80.6921 36.8857 80.8228 37.0476 80.9874L37.3362 81.2663L34.8454 83.7571L34.5665 83.4686C34.4019 83.3066 34.2712 83.1135 34.182 82.9005C34.0928 82.6875 34.0468 82.4589 34.0468 82.228C34.0468 81.9971 34.0928 81.7685 34.182 81.5555C34.2712 81.3425 34.4019 81.1494 34.5665 80.9874ZM46.1068 95.009L36.2014 85.1131L38.6922 82.6223L44.7412 88.681C44.8311 88.7701 44.9377 88.8406 45.0548 88.8885C45.172 88.9364 45.2975 88.9606 45.424 88.9599H48.3091V100.5H46.3857V95.6918C46.3865 95.5652 46.3622 95.4397 46.3143 95.3226C46.2665 95.2054 46.196 95.0988 46.1068 95.009ZM67.822 95.009C67.7328 95.0988 67.6623 95.2054 67.6144 95.3226C67.5666 95.4397 67.5423 95.5652 67.5431 95.6918V100.5H65.6197V88.9599H68.5048C68.6313 88.9606 68.7568 88.9364 68.874 88.8885C68.9911 88.8406 69.0977 88.7701 69.1876 88.681L75.2366 82.6223L77.7274 85.1131L67.822 95.009Z" fill="#86BC25"/>
<path d="M56.9647 52.4156C57.9158 52.4156 58.8454 52.1335 59.6362 51.6052C60.4269 51.0768 61.0433 50.3258 61.4072 49.4472C61.7711 48.5686 61.8664 47.6017 61.6808 46.669C61.4953 45.7362 61.0373 44.8794 60.3648 44.207C59.6924 43.5345 58.8356 43.0765 57.9028 42.891C56.9701 42.7054 56.0032 42.8007 55.1246 43.1646C54.246 43.5286 53.495 44.1449 52.9666 44.9356C52.4383 45.7264 52.1562 46.656 52.1562 47.6071C52.1562 48.8824 52.6629 50.1054 53.5646 51.0072C54.4664 51.9089 55.6894 52.4156 56.9647 52.4156ZM56.9647 44.722C57.5354 44.722 58.0932 44.8912 58.5676 45.2082C59.0421 45.5252 59.4118 45.9758 59.6302 46.503C59.8486 47.0302 59.9057 47.6103 59.7944 48.1699C59.6831 48.7296 59.4083 49.2437 59.0048 49.6471C58.6013 50.0506 58.0872 50.3254 57.5276 50.4367C56.9679 50.548 56.3878 50.4909 55.8607 50.2725C55.3335 50.0542 54.8829 49.6844 54.5659 49.2099C54.2489 48.7355 54.0796 48.1777 54.0796 47.6071C54.0796 46.8419 54.3836 46.1081 54.9247 45.567C55.4657 45.0259 56.1996 44.722 56.9647 44.722Z" fill="#86BC25"/>
<path d="M72.3517 58.1857C73.3027 58.1857 74.2324 57.9037 75.0231 57.3753C75.8139 56.847 76.4302 56.096 76.7942 55.2173C77.1581 54.3387 77.2533 53.3719 77.0678 52.4391C76.8823 51.5064 76.4243 50.6496 75.7518 49.9771C75.0793 49.3046 74.2225 48.8467 73.2898 48.6611C72.357 48.4756 71.3902 48.5708 70.5116 48.9348C69.6329 49.2987 68.882 49.915 68.3536 50.7058C67.8252 51.4965 67.5432 52.4262 67.5432 53.3772C67.5432 54.6525 68.0498 55.8756 68.9516 56.7773C69.8534 57.6791 71.0764 58.1857 72.3517 58.1857ZM72.3517 50.4921C72.9223 50.4921 73.4801 50.6613 73.9546 50.9783C74.429 51.2954 74.7988 51.746 75.0172 52.2731C75.2355 52.8003 75.2927 53.3804 75.1814 53.9401C75.07 54.4997 74.7952 55.0138 74.3918 55.4173C73.9883 55.8208 73.4742 56.0955 72.9145 56.2069C72.3549 56.3182 71.7748 56.2611 71.2476 56.0427C70.7204 55.8243 70.2699 55.4545 69.9528 54.9801C69.6358 54.5056 69.4666 53.9478 69.4666 53.3772C69.4666 52.612 69.7706 51.8782 70.3116 51.3371C70.8527 50.7961 71.5865 50.4921 72.3517 50.4921Z" fill="#86BC25"/>
<path d="M79.9013 61.0707C78.9502 61.0707 78.0206 61.3527 77.2298 61.8811C76.4391 62.4094 75.8227 63.1604 75.4588 64.039C75.0949 64.9177 74.9996 65.8845 75.1852 66.8173C75.3707 67.75 75.8287 68.6068 76.5011 69.2793C77.1736 69.9518 78.0304 70.4097 78.9632 70.5953C79.8959 70.7808 80.8628 70.6856 81.7414 70.3216C82.62 69.9577 83.371 69.3414 83.8994 68.5506C84.4277 67.7599 84.7097 66.8302 84.7097 65.8792C84.7097 64.6039 84.2031 63.3808 83.3014 62.4791C82.3996 61.5773 81.1765 61.0707 79.9013 61.0707ZM79.9013 68.7643C79.3306 68.7643 78.7728 68.595 78.2984 68.278C77.8239 67.961 77.4542 67.5104 77.2358 66.9832C77.0174 66.4561 76.9603 65.876 77.0716 65.3163C77.1829 64.7567 77.4577 64.2426 77.8612 63.8391C78.2647 63.4356 78.7788 63.1608 79.3384 63.0495C79.8981 62.9382 80.4782 62.9953 81.0053 63.2137C81.5325 63.4321 81.9831 63.8018 82.3001 64.2763C82.6171 64.7507 82.7863 65.3085 82.7863 65.8792C82.7863 66.6443 82.4824 67.3782 81.9413 67.9192C81.4003 68.4603 80.6664 68.7643 79.9013 68.7643Z" fill="#86BC25"/>
<path d="M41.5775 58.1857C42.5286 58.1857 43.4582 57.9037 44.249 57.3753C45.0397 56.847 45.656 56.096 46.02 55.2173C46.3839 54.3387 46.4792 53.3719 46.2936 52.4391C46.1081 51.5064 45.6501 50.6496 44.9776 49.9771C44.3052 49.3046 43.4484 48.8467 42.5156 48.6611C41.5829 48.4756 40.616 48.5708 39.7374 48.9348C38.8588 49.2987 38.1078 49.915 37.5794 50.7058C37.0511 51.4965 36.769 52.4262 36.769 53.3772C36.769 54.6525 37.2756 55.8756 38.1774 56.7773C39.0792 57.6791 40.3022 58.1857 41.5775 58.1857ZM41.5775 50.4921C42.1481 50.4921 42.7059 50.6613 43.1804 50.9783C43.6548 51.2954 44.0246 51.746 44.243 52.2731C44.4614 52.8003 44.5185 53.3804 44.4072 53.9401C44.2959 54.4997 44.0211 55.0138 43.6176 55.4173C43.2141 55.8208 42.7 56.0955 42.1404 56.2069C41.5807 56.3182 41.0006 56.2611 40.4735 56.0427C39.9463 55.8243 39.4957 55.4545 39.1787 54.9801C38.8616 54.5056 38.6924 53.9478 38.6924 53.3772C38.6924 52.612 38.9964 51.8782 39.5375 51.3371C40.0785 50.7961 40.8124 50.4921 41.5775 50.4921Z" fill="#86BC25"/>
<path d="M38.6924 65.8792C38.6924 64.9281 38.4104 63.9985 37.882 63.2077C37.3537 62.417 36.6027 61.8006 35.7241 61.4367C34.8454 61.0728 33.8786 60.9775 32.9458 61.1631C32.0131 61.3486 31.1563 61.8066 30.4838 62.4791C29.8113 63.1515 29.3534 64.0083 29.1678 64.9411C28.9823 65.8738 29.0775 66.8407 29.4415 67.7193C29.8054 68.5979 30.4217 69.3489 31.2125 69.8773C32.0032 70.4056 32.9329 70.6877 33.8839 70.6877C35.1592 70.6877 36.3823 70.181 37.284 69.2793C38.1858 68.3775 38.6924 67.1545 38.6924 65.8792ZM30.9988 65.8792C30.9988 65.3085 31.168 64.7507 31.4851 64.2763C31.8021 63.8018 32.2527 63.4321 32.7798 63.2137C33.307 62.9953 33.8871 62.9382 34.4468 63.0495C35.0064 63.1608 35.5205 63.4356 35.924 63.8391C36.3275 64.2426 36.6023 64.7567 36.7136 65.3163C36.8249 65.876 36.7678 66.4561 36.5494 66.9832C36.331 67.5104 35.9612 67.961 35.4868 68.278C35.0123 68.595 34.4545 68.7643 33.8839 68.7643C33.1188 68.7643 32.3849 68.4603 31.8439 67.9192C31.3028 67.3782 30.9988 66.6443 30.9988 65.8792Z" fill="#86BC25"/>
<path d="M56.9645 83.1901C56.4543 83.1901 55.9651 82.9875 55.6044 82.6268C55.2437 82.2661 55.0411 81.7768 55.0411 81.2667H53.1177C53.1177 82.287 53.523 83.2654 54.2444 83.9868C54.9658 84.7082 55.9442 85.1135 56.9645 85.1135C57.9847 85.1135 58.9631 84.7082 59.6846 83.9868C60.406 83.2654 60.8112 82.287 60.8112 81.2667H58.8879C58.8879 81.7768 58.6852 82.2661 58.3245 82.6268C57.9638 82.9875 57.4746 83.1901 56.9645 83.1901Z" fill="#86BC25"/>
</svg>
