<svg width="114" height="184" viewBox="0 0 114 184" fill="none" xmlns="http://www.w3.org/2000/svg">
<path d="M36.693 136.428L33.3024 127.569H33.2477C33.3115 128.271 33.3434 129.105 33.3434 130.071V136.428H32.2702V126.434H34.0202L37.1852 134.678H37.2399L40.4323 126.434H42.1686V136.428H41.0065V129.989C41.0065 129.251 41.0384 128.449 41.1022 127.583H41.0475L37.6295 136.428H36.693ZM49.3532 136.428L49.1276 135.362H49.0729C48.6992 135.831 48.3255 136.15 47.9518 136.319C47.5827 136.483 47.1201 136.565 46.5641 136.565C45.8213 136.565 45.2379 136.374 44.8141 135.991C44.3948 135.608 44.1852 135.063 44.1852 134.357C44.1852 132.844 45.3952 132.051 47.8151 131.978L49.0866 131.937V131.472C49.0866 130.884 48.959 130.451 48.7038 130.173C48.4531 129.891 48.0498 129.75 47.4938 129.75C46.8695 129.75 46.1631 129.941 45.3747 130.324L45.026 129.456C45.3952 129.255 45.7985 129.098 46.236 128.984C46.678 128.87 47.1201 128.813 47.5622 128.813C48.4554 128.813 49.1162 129.011 49.5446 129.408C49.9775 129.804 50.194 130.44 50.194 131.315V136.428H49.3532ZM46.7897 135.629C47.4961 135.629 48.0498 135.435 48.4508 135.047C48.8564 134.66 49.0592 134.118 49.0592 133.421V132.744L47.9245 132.792C47.0221 132.824 46.3704 132.965 45.9694 133.215C45.5729 133.462 45.3747 133.847 45.3747 134.371C45.3747 134.781 45.4977 135.093 45.7438 135.307C45.9945 135.521 46.3431 135.629 46.7897 135.629ZM57.6657 136.428V131.582C57.6657 130.971 57.5267 130.515 57.2487 130.214C56.9707 129.914 56.5355 129.763 55.943 129.763C55.1592 129.763 54.5849 129.975 54.2204 130.399C53.8558 130.823 53.6735 131.522 53.6735 132.498V136.428H52.5387V128.936H53.4616L53.6461 129.962H53.7008C53.9333 129.592 54.2591 129.308 54.6784 129.107C55.0976 128.902 55.5648 128.799 56.0797 128.799C56.9821 128.799 57.6611 129.018 58.1168 129.456C58.5726 129.889 58.8004 130.584 58.8004 131.541V136.428H57.6657ZM65.7458 136.428L65.5202 135.362H65.4655C65.0918 135.831 64.7181 136.15 64.3444 136.319C63.9752 136.483 63.5127 136.565 62.9567 136.565C62.2139 136.565 61.6305 136.374 61.2067 135.991C60.7874 135.608 60.5778 135.063 60.5778 134.357C60.5778 132.844 61.7877 132.051 64.2077 131.978L65.4792 131.937V131.472C65.4792 130.884 65.3515 130.451 65.0963 130.173C64.8457 129.891 64.4424 129.75 63.8864 129.75C63.262 129.75 62.5557 129.941 61.7672 130.324L61.4186 129.456C61.7877 129.255 62.1911 129.098 62.6286 128.984C63.0706 128.87 63.5127 128.813 63.9547 128.813C64.848 128.813 65.5088 129.011 65.9372 129.408C66.3701 129.804 66.5866 130.44 66.5866 131.315V136.428H65.7458ZM63.1823 135.629C63.8887 135.629 64.4424 135.435 64.8434 135.047C65.249 134.66 65.4518 134.118 65.4518 133.421V132.744L64.317 132.792C63.4147 132.824 62.763 132.965 62.362 133.215C61.9655 133.462 61.7672 133.847 61.7672 134.371C61.7672 134.781 61.8903 135.093 62.1364 135.307C62.387 135.521 62.7357 135.629 63.1823 135.629ZM75.0631 128.936V129.654L73.6754 129.818C73.803 129.977 73.917 130.187 74.0172 130.447C74.1175 130.702 74.1676 130.991 74.1676 131.315C74.1676 132.049 73.917 132.634 73.4157 133.072C72.9144 133.509 72.2262 133.728 71.3512 133.728C71.1279 133.728 70.9183 133.71 70.7223 133.673C70.2392 133.929 69.9977 134.25 69.9977 134.637C69.9977 134.842 70.082 134.995 70.2506 135.095C70.4193 135.191 70.7086 135.239 71.1188 135.239H72.445C73.2562 135.239 73.8782 135.41 74.3112 135.752C74.7487 136.093 74.9674 136.59 74.9674 137.242C74.9674 138.071 74.6348 138.702 73.9694 139.135C73.304 139.573 72.3333 139.792 71.0573 139.792C70.0775 139.792 69.3209 139.609 68.7877 139.245C68.2591 138.88 67.9948 138.365 67.9948 137.7C67.9948 137.244 68.1406 136.85 68.4323 136.517C68.7239 136.185 69.1341 135.959 69.6627 135.84C69.4713 135.754 69.3096 135.619 69.1774 135.437C69.0498 135.255 68.986 135.043 68.986 134.801C68.986 134.528 69.0589 134.289 69.2047 134.084C69.3506 133.879 69.5807 133.68 69.8952 133.489C69.5078 133.329 69.1911 133.058 68.945 132.675C68.7034 132.293 68.5827 131.855 68.5827 131.363C68.5827 130.543 68.8288 129.911 69.3209 129.469C69.8131 129.023 70.5104 128.799 71.4127 128.799C71.8047 128.799 72.1579 128.845 72.4723 128.936H75.0631ZM69.0885 137.686C69.0885 138.092 69.2594 138.399 69.6012 138.609C69.943 138.819 70.4329 138.923 71.0709 138.923C72.0234 138.923 72.7275 138.78 73.1833 138.493C73.6435 138.21 73.8737 137.825 73.8737 137.338C73.8737 136.932 73.7484 136.649 73.4977 136.49C73.2471 136.335 72.7754 136.257 72.0827 136.257H70.7223C70.2073 136.257 69.8063 136.38 69.5192 136.627C69.2321 136.873 69.0885 137.226 69.0885 137.686ZM69.7038 131.336C69.7038 131.86 69.8519 132.256 70.1481 132.525C70.4443 132.794 70.8568 132.928 71.3854 132.928C72.4928 132.928 73.0465 132.391 73.0465 131.315C73.0465 130.189 72.486 129.627 71.3649 129.627C70.8317 129.627 70.4215 129.77 70.1344 130.057C69.8473 130.344 69.7038 130.77 69.7038 131.336ZM79.7663 136.565C78.6588 136.565 77.7838 136.228 77.1413 135.553C76.5032 134.879 76.1842 133.942 76.1842 132.744C76.1842 131.536 76.4805 130.577 77.0729 129.866C77.6699 129.155 78.4697 128.799 79.4723 128.799C80.4111 128.799 81.154 129.109 81.7008 129.729C82.2477 130.344 82.5211 131.158 82.5211 132.17V132.887H77.36C77.3828 133.767 77.6038 134.435 78.0231 134.89C78.4469 135.346 79.0417 135.574 79.8073 135.574C80.6139 135.574 81.4114 135.405 82.1999 135.068V136.08C81.7988 136.253 81.4183 136.376 81.0583 136.449C80.7028 136.526 80.2721 136.565 79.7663 136.565ZM79.4586 129.75C78.8571 129.75 78.3763 129.946 78.0163 130.338C77.6608 130.729 77.4512 131.272 77.3874 131.964H81.3043C81.3043 131.249 81.1448 130.702 80.8258 130.324C80.5068 129.941 80.0511 129.75 79.4586 129.75ZM47.3092 152.769C47.3092 153.649 46.9902 154.335 46.3522 154.827C45.7142 155.319 44.8483 155.565 43.7545 155.565C42.5696 155.565 41.6582 155.412 41.0202 155.107V153.986C41.4303 154.159 41.8769 154.296 42.36 154.396C42.8431 154.496 43.3216 154.547 43.7956 154.547C44.5703 154.547 45.1536 154.401 45.5456 154.109C45.9375 153.813 46.1334 153.403 46.1334 152.879C46.1334 152.532 46.0628 152.25 45.9215 152.031C45.7848 151.808 45.5524 151.602 45.2243 151.416C44.9007 151.229 44.4062 151.017 43.7409 150.78C42.8112 150.447 42.1458 150.053 41.7448 149.597C41.3483 149.142 41.1501 148.547 41.1501 147.813C41.1501 147.043 41.4394 146.43 42.0182 145.974C42.597 145.519 43.3626 145.291 44.3151 145.291C45.3086 145.291 46.2223 145.473 47.0563 145.838L46.694 146.849C45.8691 146.503 45.067 146.33 44.2877 146.33C43.6725 146.33 43.1917 146.462 42.8454 146.726C42.499 146.991 42.3258 147.357 42.3258 147.827C42.3258 148.173 42.3896 148.458 42.5172 148.681C42.6448 148.9 42.859 149.103 43.1598 149.29C43.4652 149.472 43.93 149.675 44.5543 149.898C45.6025 150.272 46.3226 150.673 46.7145 151.101C47.111 151.53 47.3092 152.086 47.3092 152.769ZM53.7897 155.428L53.5641 154.362H53.5094C53.1357 154.831 52.762 155.15 52.3883 155.319C52.0192 155.483 51.5566 155.565 51.0006 155.565C50.2578 155.565 49.6745 155.374 49.2506 154.991C48.8314 154.608 48.6217 154.063 48.6217 153.357C48.6217 151.844 49.8317 151.051 52.2516 150.978L53.5231 150.937V150.472C53.5231 149.884 53.3955 149.451 53.1403 149.173C52.8896 148.891 52.4863 148.75 51.9303 148.75C51.306 148.75 50.5996 148.941 49.8112 149.324L49.4626 148.456C49.8317 148.255 50.235 148.098 50.6725 147.984C51.1146 147.87 51.5566 147.813 51.9987 147.813C52.8919 147.813 53.5527 148.011 53.9811 148.408C54.414 148.804 54.6305 149.44 54.6305 150.315V155.428H53.7897ZM51.2262 154.629C51.9326 154.629 52.4863 154.435 52.8874 154.047C53.293 153.66 53.4958 153.118 53.4958 152.421V151.744L52.361 151.792C51.4586 151.824 50.807 151.965 50.4059 152.215C50.0094 152.462 49.8112 152.847 49.8112 153.371C49.8112 153.781 49.9342 154.093 50.1803 154.307C50.431 154.521 50.7796 154.629 51.2262 154.629ZM58.11 155.428H56.9752V144.792H58.11V155.428ZM63.6813 155.565C62.5739 155.565 61.6989 155.228 61.0563 154.553C60.4183 153.879 60.0993 152.942 60.0993 151.744C60.0993 150.536 60.3955 149.577 60.9879 148.866C61.5849 148.155 62.3848 147.799 63.3874 147.799C64.3262 147.799 65.069 148.109 65.6159 148.729C66.1627 149.344 66.4362 150.158 66.4362 151.17V151.887H61.2751C61.2978 152.767 61.5189 153.435 61.9381 153.89C62.362 154.346 62.9567 154.574 63.7223 154.574C64.529 154.574 65.3265 154.405 66.1149 154.068V155.08C65.7139 155.253 65.3333 155.376 64.9733 155.449C64.6178 155.526 64.1872 155.565 63.6813 155.565ZM63.3737 148.75C62.7721 148.75 62.2913 148.946 61.9313 149.338C61.5758 149.729 61.3662 150.272 61.3024 150.964H65.2194C65.2194 150.249 65.0599 149.702 64.7409 149.324C64.4219 148.941 63.9661 148.75 63.3737 148.75ZM73.2106 153.384C73.2106 154.082 72.9508 154.619 72.4313 154.998C71.9118 155.376 71.1826 155.565 70.2438 155.565C69.2503 155.565 68.4756 155.408 67.9196 155.093V154.041C68.2796 154.223 68.6647 154.366 69.0749 154.471C69.4896 154.576 69.8883 154.629 70.2711 154.629C70.8636 154.629 71.3193 154.535 71.6383 154.348C71.9573 154.157 72.1168 153.867 72.1168 153.48C72.1168 153.188 71.9892 152.94 71.734 152.735C71.4834 152.525 70.9912 152.279 70.2575 151.997C69.5602 151.737 69.0635 151.511 68.7672 151.32C68.4756 151.124 68.2568 150.903 68.111 150.657C67.9697 150.411 67.8991 150.117 67.8991 149.775C67.8991 149.164 68.1474 148.684 68.6442 148.333C69.1409 147.977 69.8223 147.799 70.6881 147.799C71.4948 147.799 72.2832 147.964 73.0534 148.292L72.6501 149.214C71.8981 148.905 71.2168 148.75 70.6061 148.75C70.0683 148.75 69.6627 148.834 69.3893 149.003C69.1159 149.171 68.9792 149.404 68.9792 149.7C68.9792 149.9 69.0293 150.071 69.1295 150.213C69.2344 150.354 69.4007 150.488 69.6286 150.616C69.8564 150.743 70.2939 150.928 70.9411 151.17C71.8297 151.493 72.429 151.819 72.7389 152.147C73.0534 152.475 73.2106 152.888 73.2106 153.384Z" fill="white"/>
<path d="M2 54.4935L2 157.49C2 170.791 11.8578 181.59 23.9999 181.59H89.9999C102.142 181.59 112 170.791 112 157.49L112 26.1004C112 12.7989 102.142 1.99999 89.9999 1.99999H23.9999C11.8578 1.99999 2 12.7989 2 26.1004V35.5906" stroke="#85BB25" stroke-width="3" stroke-miterlimit="1.5" stroke-linecap="round" stroke-linejoin="round"/>
<path d="M73.9793 50.4673H64.7539V58.6887H73.9793V50.4673Z" stroke="#86BC25" stroke-width="2" stroke-miterlimit="1.5" stroke-linecap="round" stroke-linejoin="round"/>
<path fill-rule="evenodd" clip-rule="evenodd" d="M44.9645 44.2887L40.2925 51.3619L49.3024 51.3277L44.9645 44.2887Z" stroke="#86BC25" stroke-width="2" stroke-miterlimit="1.5" stroke-linecap="round" stroke-linejoin="round"/>
<path d="M57.2232 46.4044C59.8274 46.4044 61.9385 44.523 61.9385 42.2022C61.9385 39.8814 59.8274 38 57.2232 38C54.619 38 52.5078 39.8814 52.5078 42.2022C52.5078 44.523 54.619 46.4044 57.2232 46.4044Z" stroke="#86BC25" stroke-width="2" stroke-miterlimit="1.5" stroke-linecap="round" stroke-linejoin="round"/>
<path d="M30.7104 62.1283L49.4045 85.78L49.569 101.678L64.9055 98.7249V84.9925L83.243 62.1823" stroke="#86BC25" stroke-width="2" stroke-miterlimit="1.5" stroke-linecap="round" stroke-linejoin="round"/>
<path d="M45.0417 94.3722C52.8459 94.3722 59.1724 88.7342 59.1724 81.7793C59.1724 74.8244 52.8459 69.1864 45.0417 69.1864C37.2376 69.1864 30.9111 74.8244 30.9111 81.7793C30.9111 88.7342 37.2376 94.3722 45.0417 94.3722Z" fill="black" stroke="#86BC25" stroke-width="2" stroke-miterlimit="1.5" stroke-linecap="round" stroke-linejoin="round"/>
<path d="M44.2684 83.1274C43.752 82.9142 43.2712 82.7009 42.8438 82.4663C42.4164 82.2531 42.0424 81.9972 41.7397 81.6773C41.437 81.3574 41.1876 80.9949 41.0274 80.547C40.8493 80.1205 40.7603 79.5874 40.7603 78.9689C40.7603 78.0093 41.0096 77.1776 41.5082 76.5165C42.0068 75.8554 42.7191 75.4076 43.6451 75.173V73.4456C43.752 73.4243 43.9122 73.3817 44.1437 73.339C44.3752 73.2964 44.6067 73.275 44.8382 73.275C45.3012 73.275 45.6574 73.3603 45.9245 73.5523C46.1916 73.7442 46.3163 74.1707 46.3163 74.7891V75.0664C47.0464 75.173 47.6519 75.4076 48.0971 75.7488C48.5423 76.09 48.756 76.5592 48.756 77.1563C48.756 77.5188 48.6847 77.8387 48.5423 78.0946C48.3998 78.3718 48.2217 78.5851 48.0258 78.777C47.7587 78.5851 47.4204 78.3932 46.9752 78.2439C46.53 78.1159 46.0492 78.0306 45.5327 78.0306C44.9985 78.0306 44.6067 78.1159 44.3574 78.2865C44.1081 78.4785 43.9835 78.6917 43.9835 78.9689C43.9835 79.1822 44.0547 79.3528 44.215 79.4808C44.3752 79.63 44.6067 79.758 44.9095 79.8646L45.8533 80.2272C46.9752 80.6537 47.83 81.1868 48.4354 81.8479C49.0231 82.509 49.3258 83.426 49.3258 84.5562C49.3258 85.5159 49.0765 86.3476 48.5601 87.0087C48.0436 87.6911 47.2957 88.1603 46.3163 88.3948V90.1009C46.2094 90.1222 46.0492 90.1649 45.8177 90.2075C45.5862 90.2502 45.3547 90.2715 45.1232 90.2715C44.6602 90.2715 44.304 90.1862 44.0369 89.9943C43.7698 89.8023 43.6451 89.3758 43.6451 88.7574V88.5441C43.2177 88.4801 42.826 88.3948 42.4876 88.2669C42.1315 88.1389 41.8287 87.9683 41.5794 87.7764C41.3123 87.5845 41.1164 87.3499 40.9739 87.0727C40.8315 86.7954 40.7603 86.4969 40.7603 86.1557C40.7603 85.7505 40.8671 85.3879 41.063 85.0894C41.2589 84.8121 41.4904 84.5776 41.7219 84.4283C42.0602 84.7482 42.452 85.0041 42.9506 85.2387C43.4314 85.4732 43.9478 85.5799 44.5177 85.5799C45.1054 85.5799 45.5149 85.4732 45.7464 85.26C45.9779 85.0467 46.1026 84.7908 46.1026 84.5136C46.1026 84.2364 46.0136 84.0018 45.8177 83.8525C45.6218 83.7032 45.3547 83.5753 45.0163 83.426L44.2684 83.1274Z" fill="#86BC25"/>
<path fill-rule="evenodd" clip-rule="evenodd" d="M86.2219 59.8747C86.2219 58.6088 85.0686 57.5811 83.6481 57.5811H30.5737C29.1532 57.5811 28 58.6088 28 59.8747C28 61.1406 29.1532 62.1683 30.5737 62.1683H83.6481C85.0686 62.1683 86.2219 61.1406 86.2219 59.8747Z" fill="black" stroke="#86BC25" stroke-width="2" stroke-miterlimit="1.5" stroke-linecap="round" stroke-linejoin="round"/>
</svg>
