<svg width="114" height="184" viewBox="0 0 114 184" fill="none" xmlns="http://www.w3.org/2000/svg">
<path d="M32.3975 128.65L29.0068 119.791H28.9521C29.0159 120.493 29.0478 121.327 29.0478 122.293V128.65H27.9746V118.656H29.7246L32.8896 126.9H32.9443L36.1367 118.656H37.873V128.65H36.7109V122.211C36.7109 121.473 36.7428 120.671 36.8066 119.805H36.7519L33.334 128.65H32.3975ZM43.6152 128.787C42.5078 128.787 41.6328 128.45 40.9902 127.775C40.3522 127.101 40.0332 126.164 40.0332 124.966C40.0332 123.758 40.3294 122.799 40.9219 122.088C41.5189 121.377 42.3187 121.021 43.3213 121.021C44.2601 121.021 45.0029 121.331 45.5498 121.951C46.0967 122.566 46.3701 123.38 46.3701 124.392V125.109H41.209C41.2318 125.989 41.4528 126.657 41.8721 127.112C42.2959 127.568 42.8906 127.796 43.6562 127.796C44.4629 127.796 45.2604 127.627 46.0488 127.29V128.302C45.6478 128.475 45.2672 128.598 44.9072 128.671C44.5518 128.748 44.1211 128.787 43.6152 128.787ZM43.3076 121.972C42.706 121.972 42.2253 122.168 41.8652 122.56C41.5098 122.951 41.3001 123.494 41.2363 124.187H45.1533C45.1533 123.471 44.9938 122.924 44.6748 122.546C44.3558 122.163 43.9001 121.972 43.3076 121.972ZM52.9189 128.65L52.6934 127.584H52.6387C52.265 128.053 51.8913 128.372 51.5176 128.541C51.1484 128.705 50.6859 128.787 50.1299 128.787C49.387 128.787 48.8037 128.596 48.3799 128.213C47.9606 127.83 47.751 127.285 47.751 126.579C47.751 125.066 48.9609 124.273 51.3809 124.2L52.6523 124.159V123.694C52.6523 123.106 52.5247 122.674 52.2695 122.396C52.0189 122.113 51.6156 121.972 51.0596 121.972C50.4352 121.972 49.7288 122.163 48.9404 122.546L48.5918 121.678C48.9609 121.477 49.3643 121.32 49.8018 121.206C50.2438 121.092 50.6859 121.035 51.1279 121.035C52.0212 121.035 52.682 121.233 53.1103 121.63C53.5433 122.026 53.7598 122.662 53.7598 123.537V128.65H52.9189ZM50.3555 127.851C51.0618 127.851 51.6156 127.657 52.0166 127.27C52.4222 126.882 52.625 126.34 52.625 125.643V124.966L51.4902 125.014C50.5879 125.046 49.9362 125.187 49.5351 125.438C49.1387 125.684 48.9404 126.069 48.9404 126.593C48.9404 127.003 49.0635 127.315 49.3096 127.529C49.5602 127.743 49.9088 127.851 50.3555 127.851ZM60.9375 126.606C60.9375 127.304 60.6777 127.841 60.1582 128.22C59.6387 128.598 58.9095 128.787 57.9707 128.787C56.9772 128.787 56.2025 128.63 55.6465 128.315V127.263C56.0065 127.445 56.3916 127.589 56.8018 127.693C57.2165 127.798 57.6152 127.851 57.998 127.851C58.5905 127.851 59.0462 127.757 59.3652 127.57C59.6842 127.379 59.8437 127.09 59.8437 126.702C59.8437 126.41 59.7161 126.162 59.4609 125.957C59.2103 125.747 58.7181 125.501 57.9844 125.219C57.2871 124.959 56.7904 124.733 56.4941 124.542C56.2025 124.346 55.9837 124.125 55.8379 123.879C55.6966 123.633 55.626 123.339 55.626 122.997C55.626 122.386 55.8743 121.906 56.3711 121.555C56.8678 121.199 57.5491 121.021 58.415 121.021C59.2217 121.021 60.0101 121.186 60.7803 121.514L60.3769 122.437C59.625 122.127 58.9437 121.972 58.333 121.972C57.7952 121.972 57.3896 122.056 57.1162 122.225C56.8428 122.393 56.706 122.626 56.706 122.922C56.706 123.122 56.7562 123.293 56.8564 123.435C56.9613 123.576 57.1276 123.71 57.3555 123.838C57.5833 123.965 58.0208 124.15 58.668 124.392C59.5566 124.715 60.1559 125.041 60.4658 125.369C60.7803 125.697 60.9375 126.11 60.9375 126.606ZM63.8564 121.158V126.019C63.8564 126.629 63.9954 127.085 64.2734 127.386C64.5514 127.687 64.9866 127.837 65.5791 127.837C66.3629 127.837 66.9349 127.623 67.2949 127.194C67.6595 126.766 67.8418 126.066 67.8418 125.096V121.158H68.9766V128.65H68.04L67.876 127.646H67.8144C67.582 128.015 67.2585 128.297 66.8437 128.493C66.4336 128.689 65.9642 128.787 65.4355 128.787C64.5241 128.787 63.8405 128.571 63.3848 128.138C62.9336 127.705 62.708 127.012 62.708 126.06V121.158H63.8564ZM74.8076 121.021C75.1403 121.021 75.4388 121.049 75.7031 121.104L75.5459 122.156C75.236 122.088 74.9626 122.054 74.7256 122.054C74.1195 122.054 73.5999 122.3 73.167 122.792C72.7386 123.284 72.5244 123.897 72.5244 124.631V128.65H71.3896V121.158H72.3262L72.456 122.546H72.5107C72.7887 122.058 73.1237 121.682 73.5156 121.418C73.9075 121.154 74.3382 121.021 74.8076 121.021ZM80.2695 128.787C79.1621 128.787 78.2871 128.45 77.6445 127.775C77.0065 127.101 76.6875 126.164 76.6875 124.966C76.6875 123.758 76.9837 122.799 77.5762 122.088C78.1732 121.377 78.973 121.021 79.9756 121.021C80.9144 121.021 81.6572 121.331 82.2041 121.951C82.751 122.566 83.0244 123.38 83.0244 124.392V125.109H77.8633C77.8861 125.989 78.1071 126.657 78.5264 127.112C78.9502 127.568 79.5449 127.796 80.3105 127.796C81.1172 127.796 81.9147 127.627 82.7031 127.29V128.302C82.3021 128.475 81.9215 128.598 81.5615 128.671C81.206 128.748 80.7754 128.787 80.2695 128.787ZM79.9619 121.972C79.3603 121.972 78.8795 122.168 78.5195 122.56C78.1641 122.951 77.9544 123.494 77.8906 124.187H81.8076C81.8076 123.471 81.6481 122.924 81.3291 122.546C81.0101 122.163 80.5544 121.972 79.9619 121.972ZM22.2666 140.568C22.2666 141.58 21.9202 142.359 21.2275 142.906C20.5394 143.449 19.5527 143.72 18.2676 143.72H17.0918V147.65H15.9297V137.656H18.5205C21.0179 137.656 22.2666 138.627 22.2666 140.568ZM17.0918 142.722H18.1377C19.1676 142.722 19.9128 142.555 20.373 142.223C20.8333 141.89 21.0635 141.357 21.0635 140.623C21.0635 139.962 20.847 139.47 20.4141 139.146C19.9811 138.823 19.3066 138.661 18.3906 138.661H17.0918V142.722ZM27.3594 147.787C26.2519 147.787 25.3769 147.45 24.7344 146.775C24.0963 146.101 23.7773 145.164 23.7773 143.966C23.7773 142.758 24.0736 141.799 24.666 141.088C25.263 140.377 26.0628 140.021 27.0654 140.021C28.0042 140.021 28.7471 140.331 29.2939 140.951C29.8408 141.566 30.1143 142.38 30.1143 143.392V144.109H24.9531C24.9759 144.989 25.1969 145.657 25.6162 146.112C26.04 146.568 26.6348 146.796 27.4004 146.796C28.207 146.796 29.0045 146.627 29.793 146.29V147.302C29.3919 147.475 29.0114 147.598 28.6514 147.671C28.2959 147.748 27.8652 147.787 27.3594 147.787ZM27.0518 140.972C26.4502 140.972 25.9694 141.168 25.6094 141.56C25.2539 141.951 25.0443 142.494 24.9805 143.187H28.8975C28.8975 142.471 28.7379 141.924 28.4189 141.546C28.0999 141.163 27.6442 140.972 27.0518 140.972ZM35.4736 140.021C35.8063 140.021 36.1048 140.049 36.3691 140.104L36.2119 141.156C35.902 141.088 35.6286 141.054 35.3916 141.054C34.7855 141.054 34.2659 141.3 33.833 141.792C33.4046 142.284 33.1904 142.897 33.1904 143.631V147.65H32.0557V140.158H32.9922L33.1221 141.546H33.1768C33.4547 141.058 33.7897 140.682 34.1816 140.418C34.5736 140.154 35.0042 140.021 35.4736 140.021ZM41.1475 141.04H39.2402V147.65H38.1055V141.04H36.7656V140.527L38.1055 140.117V139.7C38.1055 137.859 38.9098 136.938 40.5185 136.938C40.915 136.938 41.3799 137.018 41.9131 137.178L41.6191 138.087C41.1816 137.946 40.8079 137.875 40.498 137.875C40.0697 137.875 39.7529 138.019 39.5478 138.306C39.3428 138.588 39.2402 139.044 39.2402 139.673V140.158H41.1475V141.04ZM48.9814 143.897C48.9814 145.119 48.6738 146.074 48.0586 146.762C47.4434 147.445 46.5934 147.787 45.5088 147.787C44.8389 147.787 44.2441 147.63 43.7246 147.315C43.2051 147.001 42.804 146.55 42.5215 145.962C42.2389 145.374 42.0976 144.686 42.0976 143.897C42.0976 142.676 42.403 141.726 43.0137 141.047C43.6243 140.363 44.472 140.021 45.5566 140.021C46.6048 140.021 47.4365 140.37 48.0518 141.067C48.6715 141.765 48.9814 142.708 48.9814 143.897ZM43.2734 143.897C43.2734 144.854 43.4648 145.584 43.8476 146.085C44.2305 146.586 44.7933 146.837 45.5361 146.837C46.279 146.837 46.8418 146.589 47.2246 146.092C47.612 145.59 47.8057 144.859 47.8057 143.897C47.8057 142.945 47.612 142.223 47.2246 141.73C46.8418 141.234 46.2744 140.985 45.5225 140.985C44.7796 140.985 44.2191 141.229 43.8408 141.717C43.4626 142.204 43.2734 142.931 43.2734 143.897ZM54.3955 140.021C54.7282 140.021 55.0267 140.049 55.291 140.104L55.1338 141.156C54.8239 141.088 54.5504 141.054 54.3135 141.054C53.7073 141.054 53.1878 141.3 52.7549 141.792C52.3265 142.284 52.1123 142.897 52.1123 143.631V147.65H50.9775V140.158H51.9141L52.0439 141.546H52.0986C52.3766 141.058 52.7116 140.682 53.1035 140.418C53.4954 140.154 53.9261 140.021 54.3955 140.021ZM66.2422 147.65V142.776C66.2422 142.179 66.1146 141.733 65.8594 141.437C65.6042 141.136 65.2077 140.985 64.6699 140.985C63.9635 140.985 63.4417 141.188 63.1045 141.594C62.7672 141.999 62.5986 142.624 62.5986 143.467V147.65H61.4639V142.776C61.4639 142.179 61.3363 141.733 61.081 141.437C60.8258 141.136 60.4271 140.985 59.8848 140.985C59.1738 140.985 58.652 141.2 58.3193 141.628C57.9912 142.052 57.8271 142.749 57.8271 143.72V147.65H56.6924V140.158H57.6152L57.7998 141.184H57.8545C58.0687 140.819 58.3695 140.534 58.7568 140.329C59.1488 140.124 59.5863 140.021 60.0693 140.021C61.2406 140.021 62.0062 140.445 62.3662 141.293H62.4209C62.6442 140.901 62.9678 140.591 63.3916 140.363C63.8154 140.135 64.2985 140.021 64.8408 140.021C65.6885 140.021 66.3219 140.24 66.7412 140.678C67.165 141.111 67.3769 141.806 67.3769 142.763V147.65H66.2422ZM74.3291 147.65L74.1035 146.584H74.0488C73.6751 147.053 73.3014 147.372 72.9277 147.541C72.5586 147.705 72.096 147.787 71.54 147.787C70.7972 147.787 70.2139 147.596 69.79 147.213C69.3708 146.83 69.1611 146.285 69.1611 145.579C69.1611 144.066 70.3711 143.273 72.791 143.2L74.0625 143.159V142.694C74.0625 142.106 73.9349 141.674 73.6797 141.396C73.429 141.113 73.0257 140.972 72.4697 140.972C71.8454 140.972 71.139 141.163 70.3506 141.546L70.0019 140.678C70.3711 140.477 70.7744 140.32 71.2119 140.206C71.654 140.092 72.096 140.035 72.5381 140.035C73.4313 140.035 74.0921 140.233 74.5205 140.63C74.9534 141.026 75.1699 141.662 75.1699 142.537V147.65H74.3291ZM71.7656 146.851C72.472 146.851 73.0257 146.657 73.4268 146.27C73.8323 145.882 74.0351 145.34 74.0351 144.643V143.966L72.9004 144.014C71.998 144.046 71.3463 144.187 70.9453 144.438C70.5488 144.684 70.3506 145.069 70.3506 145.593C70.3506 146.003 70.4736 146.315 70.7197 146.529C70.9704 146.743 71.319 146.851 71.7656 146.851ZM82.6416 147.65V142.804C82.6416 142.193 82.5026 141.737 82.2246 141.437C81.9466 141.136 81.5114 140.985 80.9189 140.985C80.1351 140.985 79.5609 141.197 79.1963 141.621C78.8317 142.045 78.6494 142.744 78.6494 143.72V147.65H77.5146V140.158H78.4375L78.6221 141.184H78.6768C78.9092 140.814 79.235 140.53 79.6543 140.329C80.0736 140.124 80.5407 140.021 81.0557 140.021C81.958 140.021 82.637 140.24 83.0928 140.678C83.5485 141.111 83.7764 141.806 83.7764 142.763V147.65H82.6416ZM89.1084 147.787C88.0238 147.787 87.1829 147.454 86.5859 146.789C85.9935 146.119 85.6973 145.174 85.6973 143.952C85.6973 142.699 85.998 141.73 86.5996 141.047C87.2057 140.363 88.067 140.021 89.1836 140.021C89.5436 140.021 89.9036 140.06 90.2637 140.138C90.6237 140.215 90.9062 140.306 91.1113 140.411L90.7627 141.375C90.512 141.275 90.2386 141.193 89.9424 141.129C89.6462 141.061 89.3841 141.026 89.1562 141.026C87.6341 141.026 86.873 141.997 86.873 143.938C86.873 144.859 87.0576 145.565 87.4268 146.058C87.8004 146.55 88.3519 146.796 89.081 146.796C89.7054 146.796 90.3457 146.661 91.0019 146.393V147.397C90.5006 147.657 89.8695 147.787 89.1084 147.787ZM95.9512 147.787C94.8437 147.787 93.9687 147.45 93.3262 146.775C92.6881 146.101 92.3691 145.164 92.3691 143.966C92.3691 142.758 92.6654 141.799 93.2578 141.088C93.8548 140.377 94.6546 140.021 95.6572 140.021C96.596 140.021 97.3389 140.331 97.8857 140.951C98.4326 141.566 98.706 142.38 98.706 143.392V144.109H93.5449C93.5677 144.989 93.7887 145.657 94.208 146.112C94.6318 146.568 95.2266 146.796 95.9922 146.796C96.7988 146.796 97.5963 146.627 98.3848 146.29V147.302C97.9837 147.475 97.6032 147.598 97.2432 147.671C96.8877 147.748 96.457 147.787 95.9512 147.787ZM95.6435 140.972C95.042 140.972 94.5612 141.168 94.2012 141.56C93.8457 141.951 93.6361 142.494 93.5723 143.187H97.4893C97.4893 142.471 97.3297 141.924 97.0107 141.546C96.6917 141.163 96.236 140.972 95.6435 140.972Z" fill="white"/>
<path d="M2.00002 54.4935L2.00002 157.49C2.00002 170.791 11.8578 181.59 23.9999 181.59H89.9999C102.142 181.59 112 170.791 112 157.49L112 26.1004C112 12.7989 102.142 2.00002 89.9999 2.00002H23.9999C11.8578 2.00002 2.00002 12.7989 2.00002 26.1004V35.5906" stroke="#85BB25" stroke-width="3" stroke-miterlimit="1.5" stroke-linecap="round" stroke-linejoin="round"/>
<path d="M86.2958 69.0049C86.029 68.5548 85.4478 68.4065 84.9973 68.6733C84.5472 68.9403 84.3988 69.5218 84.6658 69.9718C86.4677 73.0095 87.4202 76.4928 87.4202 80.0452C87.4202 90.9484 78.5497 99.8189 67.6465 99.8189C56.7433 99.8189 47.8728 90.9484 47.8728 80.0452C47.8728 69.142 56.7433 60.2715 67.6465 60.2715C73.2767 60.2715 78.6567 62.6828 82.4074 66.8875C82.7558 67.278 83.3549 67.3122 83.7453 66.9638C84.1358 66.6155 84.17 66.0164 83.8217 65.6259C79.7118 61.0186 73.8162 58.3762 67.6465 58.3762C59.4358 58.3762 52.2771 62.9666 48.6019 69.7158C45.9734 67.2338 42.4809 65.8308 38.8388 65.8308C31.001 65.8308 24.6245 72.2073 24.6245 80.0452C24.6245 87.883 31.001 94.2595 38.8388 94.2595C42.481 94.2595 45.9734 92.8565 48.6019 90.3746C52.2771 97.1237 59.4358 101.714 67.6465 101.714C79.5948 101.714 89.3155 91.9934 89.3155 80.0452C89.3155 76.1527 88.2713 72.3351 86.2958 69.0049ZM38.8388 92.3642C32.046 92.3642 26.5198 86.838 26.5198 80.0452C26.5198 73.2524 32.046 67.7261 38.8388 67.7261C42.1968 67.7261 45.4084 69.1024 47.7276 71.5171C47.4458 72.173 47.1952 72.8453 46.9783 73.5323C45.0249 71.079 42.0629 69.6213 38.839 69.6213C36.7375 69.6213 34.7104 70.2468 32.9766 71.43C32.5444 71.725 32.433 72.3146 32.7281 72.7468C33.0231 73.1791 33.6125 73.2905 34.0449 72.9954C35.4625 72.0279 37.1202 71.5164 38.839 71.5164C42.0048 71.5164 44.8614 73.2357 46.3542 76.0194C46.1078 77.3245 45.9776 78.6698 45.9776 80.0452C45.9776 81.4206 46.1078 82.766 46.3541 84.0709C44.8614 86.8548 42.0051 88.5738 38.8388 88.5738C34.1361 88.5738 30.3102 84.7479 30.3102 80.0452C30.3102 78.5108 30.7243 77.0056 31.5075 75.692C31.7756 75.2425 31.6286 74.6609 31.179 74.3928C30.7295 74.1246 30.1478 74.2719 29.8798 74.7213C28.9215 76.3282 28.415 78.1691 28.415 80.0452C28.415 85.7929 33.0911 90.469 38.8388 90.469C42.0634 90.469 45.0249 89.0113 46.9781 86.5578C47.1952 87.2451 47.4458 87.9174 47.7276 88.5732C45.4084 90.9879 42.1971 92.3642 38.8388 92.3642Z" fill="#86BC25"/>
<path d="M56.9552 94.3668C60.0648 96.6938 63.7618 97.9237 67.6465 97.9237C77.5047 97.9237 85.525 89.9034 85.525 80.0452C85.525 70.187 77.5047 62.1667 67.6465 62.1667C57.7884 62.1667 49.7681 70.187 49.7681 80.0452C49.7681 84.1857 51.222 88.2251 53.862 91.4192C54.1954 91.8226 54.7927 91.8794 55.1962 91.5459C55.5996 91.2125 55.6563 90.6151 55.3229 90.2117C52.9629 87.3565 51.6633 83.746 51.6633 80.0452C51.6633 71.2321 58.8334 64.062 67.6465 64.062C76.4597 64.062 83.6297 71.2321 83.6297 80.0452C83.6297 88.8583 76.4597 96.0284 67.6465 96.0284C64.1743 96.0284 60.8699 94.9292 58.0907 92.8493C57.6716 92.5357 57.0778 92.6213 56.7642 93.0403C56.4507 93.4594 56.5361 94.0532 56.9552 94.3668Z" fill="#86BC25"/>
<path d="M68.594 67.5364V66.2729C68.594 65.7496 68.1697 65.3253 67.6464 65.3253C67.123 65.3253 66.6987 65.7496 66.6987 66.2729V67.5364C66.6987 68.0598 67.123 68.4841 67.6464 68.4841C68.1697 68.4841 68.594 68.0598 68.594 67.5364Z" fill="#86BC25"/>
<path d="M67.6464 91.6061C67.123 91.6061 66.6987 92.0304 66.6987 92.5537V93.8172C66.6987 94.3405 67.123 94.7648 67.6464 94.7648C68.1697 94.7648 68.594 94.3405 68.594 93.8172V92.5537C68.594 92.0304 68.1697 91.6061 67.6464 91.6061Z" fill="#86BC25"/>
<path d="M60.5714 69.6862C60.7469 69.9902 61.0654 70.1601 61.3929 70.1601C61.5536 70.1601 61.7166 70.1192 61.8658 70.033C62.319 69.7713 62.4743 69.1918 62.2126 68.7385L61.5809 67.6442C61.3192 67.191 60.7397 67.0357 60.2864 67.2974C59.8332 67.5591 59.6779 68.1386 59.9396 68.5919L60.5714 69.6862Z" fill="#86BC25"/>
<path d="M56.3397 74.6113C56.489 74.6974 56.6519 74.7384 56.8127 74.7384C57.1402 74.7384 57.4587 74.5683 57.6342 74.2644C57.8959 73.8112 57.7406 73.2316 57.2874 72.97L56.193 72.3382C55.7398 72.0764 55.1601 72.2318 54.8986 72.6851C54.6369 73.1383 54.7922 73.7178 55.2454 73.9795L56.3397 74.6113Z" fill="#86BC25"/>
<path d="M52.9268 80.0449C52.9268 80.5683 53.351 80.9925 53.8744 80.9925H55.1379C55.6612 80.9925 56.0855 80.5683 56.0855 80.0449C56.0855 79.5216 55.6612 79.0973 55.1379 79.0973H53.8744C53.351 79.0973 52.9268 79.5216 52.9268 80.0449Z" fill="#86BC25"/>
<path d="M79.2073 80.0449C79.2073 80.5683 79.6316 80.9925 80.1549 80.9925H81.4184C81.9417 80.9925 82.366 80.5683 82.366 80.0449C82.366 79.5216 81.9417 79.0973 81.4184 79.0973H80.1549C79.6316 79.0973 79.2073 79.5216 79.2073 80.0449Z" fill="#86BC25"/>
<path d="M55.7201 87.8784C55.8808 87.8784 56.0438 87.8375 56.193 87.7513L57.2874 87.1196C57.7406 86.8579 57.8959 86.2784 57.6342 85.8251C57.3725 85.3719 56.7928 85.2166 56.3397 85.4783L55.2454 86.1101C54.7922 86.3717 54.6369 86.9513 54.8986 87.4045C55.0741 87.7085 55.3926 87.8784 55.7201 87.8784Z" fill="#86BC25"/>
<path d="M79.0998 72.3382L78.0054 72.9699C77.5522 73.2316 77.3969 73.8112 77.6586 74.2644C77.8341 74.5684 78.1526 74.7383 78.4801 74.7383C78.6408 74.7383 78.8038 74.6974 78.9531 74.6112L80.0474 73.9795C80.5006 73.7178 80.6559 73.1382 80.3942 72.685C80.1325 72.2318 79.553 72.0765 79.0998 72.3382Z" fill="#86BC25"/>
<path d="M60.2864 92.7928C60.4357 92.879 60.5987 92.9199 60.7594 92.9199C61.0869 92.9199 61.4054 92.7499 61.5809 92.446L62.2126 91.3517C62.4743 90.8985 62.319 90.3189 61.8658 90.0572C61.4126 89.7954 60.8329 89.9508 60.5714 90.4041L59.9396 91.4984C59.6779 91.9516 59.8332 92.5311 60.2864 92.7928Z" fill="#86BC25"/>
<path d="M73.9 70.1602C74.2275 70.1602 74.546 69.9901 74.7215 69.6862L75.3533 68.5919C75.6149 68.1387 75.4597 67.5591 75.0064 67.2975C74.5532 67.0357 73.9735 67.1911 73.712 67.6443L73.0802 68.7386C72.8186 69.1918 72.9739 69.7714 73.4271 70.0331C73.5763 70.1192 73.7393 70.1602 73.9 70.1602Z" fill="#86BC25"/>
<path d="M63.9194 80.0449C63.9194 81.7728 65.1014 83.2295 66.6991 83.6498V89.5211C66.6991 90.0445 67.1234 90.4688 67.6467 90.4688C68.1701 90.4688 68.5944 90.0445 68.5944 89.5211V83.6498C70.1921 83.2295 71.3741 81.7728 71.3741 80.0449C71.3741 77.9897 69.7019 76.3176 67.6467 76.3176C65.5915 76.3176 63.9194 77.9897 63.9194 80.0449ZM67.6467 78.2129C68.6569 78.2129 69.4788 79.0348 69.4788 80.0449C69.4788 81.0551 68.6569 81.877 67.6467 81.877C66.6366 81.877 65.8147 81.0551 65.8147 80.0449C65.8147 79.0348 66.6366 78.2129 67.6467 78.2129Z" fill="#86BC25"/>
<path d="M32.4579 80.9926H36.1589C36.5501 82.0955 37.6033 82.8879 38.8388 82.8879C40.4064 82.8879 41.6816 81.6126 41.6816 80.045C41.6816 78.4774 40.4064 77.2021 38.8388 77.2021C37.6033 77.2021 36.5501 77.9945 36.1589 79.0974H32.4579C31.9345 79.0974 31.5103 79.5217 31.5103 80.045C31.5103 80.5684 31.9344 80.9926 32.4579 80.9926ZM38.8388 79.0974C39.3614 79.0974 39.7864 79.5224 39.7864 80.045C39.7864 80.5676 39.3614 80.9926 38.8388 80.9926C38.3162 80.9926 37.8912 80.5676 37.8912 80.045C37.8912 79.5224 38.3162 79.0974 38.8388 79.0974Z" fill="#86BC25"/>
</svg>
